<svg xmlns="http://www.w3.org/2000/svg" version="1.1" xmlns:xlink="http://www.w3.org/1999/xlink" xmlns:svgjs="http://svgjs.dev/svgjs" width="1000" height="991" viewBox="0 0 1000 991"><g transform="matrix(1,0,0,1,-0.4247937342443606,0.401214574898745)"><svg viewBox="0 0 249 247" data-background-color="#ffffff" preserveAspectRatio="xMidYMid meet" height="991" width="1000" xmlns="http://www.w3.org/2000/svg" xmlns:xlink="http://www.w3.org/1999/xlink"><g id="tight-bounds" transform="matrix(1,0,0,1,0.10577363982685029,-0.09999999999999432)"><svg viewBox="0 0 248.78845272034627 247.2" height="247.2" width="248.78845272034627"><g><svg viewBox="0 0 397.4975999999999 394.95967616492203" height="247.2" width="248.78845272034627"><g transform="matrix(1,0,0,1,0,276.78405672587525)"><svg viewBox="0 0 397.4975999999999 118.17561943904678" height="118.17561943904678" width="397.4975999999999"><g><svg viewBox="0 0 397.4975999999999 118.17561943904678" height="118.17561943904678" width="397.4975999999999"><g><rect width="397.4975999999999" height="7.038013698537614" x="0" y="86.33402480236417" fill="#2257bf" opacity="1" stroke-width="0" stroke="transparent" fill-opacity="1" class="rect-o-0" data-fill-palette-color="primary" rx="1%" id="o-0" data-palette-color="#2257bf"></rect></g><g transform="matrix(1,0,0,1,0.9887999999999693,0)"><svg viewBox="0 0 395.52 78.04317096900834" height="78.04317096900834" width="395.52"><g transform="matrix(1,0,0,1,0,0)"><svg width="395.52" viewBox="0.34375 -39.95000076293945 219.68624877929688 43.35000228881836" height="78.04317096900834" data-palette-color="#2257bf"><path d="M28.15-1.2L17.15-34.8 6.2-1.2 6.2-1.25Q5.9-0.5 5.38-0.03 4.85 0.45 4.1 0.45L4.1 0.45Q3.7 0.45 3.33 0.38 2.95 0.3 2.55 0.2L2.55 0.2 2.6 0.2Q-0.25-0.7 0.5-3L0.5-3 11.9-37.65Q12.15-38.45 12.78-39 13.4-39.55 14.25-39.65L14.25-39.65Q15.1-39.8 15.9-39.88 16.7-39.95 17.15-39.95L17.15-39.95Q17.6-39.95 18.4-39.88 19.2-39.8 20.05-39.7L20.05-39.7Q20.75-39.6 21.43-38.95 22.1-38.3 22.45-37.65L22.45-37.65Q25.25-29.05 28.13-20.33 31-11.6 33.8-3L33.8-3Q34.5-0.7 31.7 0.2L31.7 0.2Q31.3 0.3 30.98 0.38 30.65 0.45 30.25 0.45L30.25 0.45Q29.55 0.45 28.98-0.03 28.4-0.5 28.15-1.25L28.15-1.25 28.15-1.2ZM20.9-12L20.9-12Q20.9-10.4 19.78-9.28 18.65-8.15 17.05-8.15L17.05-8.15Q15.45-8.15 14.35-9.28 13.25-10.4 13.25-12L13.25-12Q13.25-13.6 14.35-14.73 15.45-15.85 17.05-15.85L17.05-15.85Q18.65-15.85 19.78-14.73 20.9-13.6 20.9-12ZM47.55-5L55.8-5Q57.15-5 58.3-5.73 59.45-6.45 59.45-8.15L59.45-8.15 59.35-31.3Q59.35-32.55 58.6-33.6 57.85-34.65 55.95-34.65L55.95-34.65 47.55-34.65Q45.7-34.65 44.92-33.6 44.15-32.55 44.15-31.3L44.15-31.3 44.15-8.4Q44.15-7.1 44.92-6.05 45.7-5 47.55-5L47.55-5ZM56.2-11.6L56.2-11.6Q56.2-9.85 55-8.65 53.8-7.45 52.05-7.45L52.05-7.45Q50.35-7.45 49.15-8.65 47.95-9.85 47.95-11.6L47.95-11.6Q47.95-13.3 49.15-14.5 50.35-15.7 52.05-15.7L52.05-15.7Q53.8-15.7 55-14.5 56.2-13.3 56.2-11.6ZM64.05-3.65L67.25-0.4Q67.75 0.1 67.75 0.85L67.75 0.85Q67.75 1.25 67.55 1.65 67.35 2.05 66.9 2.45L66.9 2.45Q66 3.4 65.3 3.4L65.3 3.4Q64.75 3.4 64.1 2.75L64.1 2.75 60.65-0.7Q58.7 0.05 57.25 0.05L57.25 0.05 46.35 0.05Q45.05 0.05 43.67-0.48 42.3-1 41-1.95L41-1.95Q38.3-3.95 38.3-8L38.3-8 38.3-31.75Q38.3-33.75 39-35.27 39.7-36.8 41-37.75L41-37.75 40.95-37.75Q42.2-38.6 43.62-39.15 45.05-39.7 46.35-39.7L46.35-39.7 57.25-39.7Q58.5-39.7 59.9-39.15 61.3-38.6 62.6-37.75L62.6-37.75 62.55-37.75Q63.85-36.8 64.55-35.27 65.25-33.75 65.25-31.75L65.25-31.75 65.25-8Q65.25-6.8 64.92-5.7 64.6-4.6 64.05-3.65L64.05-3.65ZM100.3-37.55L100.3-8Q100.3-3.95 97.6-1.95L97.6-1.95Q96.3-1 94.92-0.48 93.55 0.05 92.25 0.05L92.25 0.05 81.35 0.05Q80.05 0.05 78.67-0.48 77.3-1 76-1.95L76-1.95Q74.7-2.95 74-4.42 73.3-5.9 73.3-8L73.3-8 73.3-37.55Q73.3-39.95 76.25-39.95L76.25-39.95Q79.25-39.95 79.25-37.55L79.25-37.55 79.25-8.4Q79.25-7.1 80-6.05 80.75-5 82.6-5L82.6-5 91-5Q92.85-5 93.6-6.05 94.35-7.1 94.35-8.4L94.35-8.4 94.35-37.55Q94.35-39.95 97.3-39.95L97.3-39.95Q100.3-39.95 100.3-37.55L100.3-37.55ZM132.09-1.2L121.09-34.8 110.14-1.2 110.14-1.25Q109.84-0.5 109.32-0.03 108.79 0.45 108.04 0.45L108.04 0.45Q107.64 0.45 107.27 0.38 106.89 0.3 106.49 0.2L106.49 0.2 106.54 0.2Q103.69-0.7 104.44-3L104.44-3 115.84-37.65Q116.09-38.45 116.72-39 117.34-39.55 118.19-39.65L118.19-39.65Q119.04-39.8 119.84-39.88 120.64-39.95 121.09-39.95L121.09-39.95Q121.54-39.95 122.34-39.88 123.14-39.8 123.99-39.7L123.99-39.7Q124.69-39.6 125.37-38.95 126.04-38.3 126.39-37.65L126.39-37.65Q129.19-29.05 132.07-20.33 134.94-11.6 137.74-3L137.74-3Q138.44-0.7 135.64 0.2L135.64 0.2Q135.24 0.3 134.92 0.38 134.59 0.45 134.19 0.45L134.19 0.45Q133.49 0.45 132.92-0.03 132.34-0.5 132.09-1.25L132.09-1.25 132.09-1.2ZM124.84-12L124.84-12Q124.84-10.4 123.72-9.28 122.59-8.15 120.99-8.15L120.99-8.15Q119.39-8.15 118.29-9.28 117.19-10.4 117.19-12L117.19-12Q117.19-13.6 118.29-14.73 119.39-15.85 120.99-15.85L120.99-15.85Q122.59-15.85 123.72-14.73 124.84-13.6 124.84-12ZM165.84-0.6L156.39-16.45 152.54-16.45Q151.69-16.45 151.22-17.13 150.74-17.8 150.74-18.95L150.74-18.95Q150.74-21.5 152.84-21.5L152.84-21.5 158.69-21.5Q160.54-21.5 161.29-22.55 162.04-23.6 162.04-24.85L162.04-24.85 162.04-31.3Q162.04-32.55 161.29-33.6 160.54-34.65 158.69-34.65L158.69-34.65 148.14-34.65 148.14-2.05Q148.14 0.35 145.19 0.35L145.19 0.35Q142.24 0.35 142.24-2.05L142.24-2.05 142.24-36.7Q142.24-38.5 143.17-39.1 144.09-39.7 145.39-39.7L145.39-39.7 159.94-39.7Q161.24-39.7 162.64-39.15 164.04-38.6 165.34-37.75L165.34-37.75 165.29-37.75Q166.59-36.8 167.29-35.27 167.99-33.75 167.99-31.75L167.99-31.75 167.99-24.45Q167.99-20.4 165.29-18.4L165.29-18.4Q164.74-18 164.12-17.65 163.49-17.3 162.84-16.95L162.84-16.95 170.84-3.75Q170.99-3.5 171.14-3.1 171.29-2.7 171.29-2.45L171.29-2.45Q171.29-1.25 169.59-0.15L169.59-0.15 169.59-0.2Q168.44 0.5 167.64 0.5L167.64 0.5Q166.49 0.5 165.79-0.65L165.79-0.65 165.84-0.6ZM182.09-37.55L182.09-2.1Q182.09 0.3 179.09 0.3L179.09 0.3Q176.14 0.3 176.14-2.1L176.14-2.1 176.14-37.55Q176.14-39.95 179.09-39.95L179.09-39.95Q182.09-39.95 182.09-37.55L182.09-37.55ZM214.24-1.2L203.24-34.8 192.29-1.2 192.29-1.25Q191.99-0.5 191.46-0.03 190.94 0.45 190.19 0.45L190.19 0.45Q189.79 0.45 189.41 0.38 189.04 0.3 188.64 0.2L188.64 0.2 188.69 0.2Q185.84-0.7 186.59-3L186.59-3 197.99-37.65Q198.24-38.45 198.86-39 199.49-39.55 200.34-39.65L200.34-39.65Q201.19-39.8 201.99-39.88 202.79-39.95 203.24-39.95L203.24-39.95Q203.69-39.95 204.49-39.88 205.29-39.8 206.14-39.7L206.14-39.7Q206.84-39.6 207.51-38.95 208.19-38.3 208.54-37.65L208.54-37.65Q211.34-29.05 214.21-20.33 217.09-11.6 219.89-3L219.89-3Q220.59-0.7 217.79 0.2L217.79 0.2Q217.39 0.3 217.06 0.38 216.74 0.45 216.34 0.45L216.34 0.45Q215.64 0.45 215.06-0.03 214.49-0.5 214.24-1.25L214.24-1.25 214.24-1.2ZM206.99-12L206.99-12Q206.99-10.4 205.86-9.28 204.74-8.15 203.14-8.15L203.14-8.15Q201.54-8.15 200.44-9.28 199.34-10.4 199.34-12L199.34-12Q199.34-13.6 200.44-14.73 201.54-15.85 203.14-15.85L203.14-15.85Q204.74-15.85 205.86-14.73 206.99-13.6 206.99-12Z" opacity="1" transform="matrix(1,0,0,1,0,0)" fill="#2257bf" class="undefined-text-0" data-fill-palette-color="primary" id="text-0"></path></svg></g></svg></g><g transform="matrix(1,0,0,1,0.9887999999999693,101.6628923342576)"><svg viewBox="0 0 395.52 16.512727104789175" height="16.512727104789175" width="395.52"><g transform="matrix(1,0,0,1,0,0)"><svg width="395.52" viewBox="3 -43.54999923706055 1082.550048828125 45.20000076293945" height="16.512727104789175" data-palette-color="#2257bf"><path d="M30.35-8L31.1-5.4 31.7-3.45Q31.85-2.95 31.85-2.5L31.85-2.5Q31.85-1.05 30.63-0.25 29.4 0.55 27.75 0.55L27.75 0.55Q26.45 0.55 25.5 0 24.55-0.55 24.25-1.55L24.25-1.55 22.55-8 12.35-8.05 10.6-1.7Q10.3-0.55 9.38-0.03 8.45 0.5 7.15 0.5L7.15 0.5Q5.5 0.5 4.25-0.33 3-1.15 3-2.5L3-2.5Q3-3 3.15-3.5L3.15-3.5 8.9-20.8 11.7-29.35Q12.85-32.75 14.2-34.18 15.55-35.6 17.85-35.6L17.85-35.6Q20.05-35.6 21.33-34.33 22.6-33.05 23.65-29.8L23.65-29.8Q26.4-21.1 28.45-14.35L28.45-14.35 29.8-14.35Q32.25-14.35 32.25-11.2L32.25-11.2Q32.25-8 30.4-8L30.4-8 30.35-8ZM14.25-14.5L20.85-14.45 20.2-16.8 18.95-21.2 18.45-22.95Q18.15-24.05 17.95-24.55 17.75-25.05 17.55-25.05L17.55-25.05Q17.3-25.05 17.15-24.6 17-24.15 16.7-23L16.7-23 16.3-21.55 14.25-14.5ZM66.84 0Q65.15 0 63.85-0.83 62.55-1.65 62.25-2.9L62.25-2.9Q62.15-3.2 61.35-6.9L61.35-6.9Q60.1-13.15 58.4-18.7L58.4-18.7Q57.25-22.55 56.5-25.5L56.5-25.5 55-30.9Q54.85-31.45 54.85-31.9L54.85-31.9Q54.85-33.45 56.05-34.38 57.25-35.3 59.05-35.3L59.05-35.3Q60.25-35.3 61.02-34.77 61.8-34.25 62.1-33L62.1-33Q62.45-31.5 62.77-30.38 63.1-29.25 63.3-28.4L63.3-28.4Q64.55-24.15 65.34-20.35L65.34-20.35Q65.59-19.25 66.25-15.8L66.25-15.8Q66.7-13.65 67.09-11.85 67.5-10.05 67.65-10.05L67.65-10.05Q67.8-10.05 68.17-11 68.55-11.95 68.82-12.78 69.09-13.6 69.25-14.05L69.25-14.05Q69.45-14.75 70.3-17.15L70.3-17.15Q71-19 71.42-19.93 71.84-20.85 72.55-21.55 73.25-22.25 74.25-22.25L74.25-22.25Q75.65-22.25 76.55-21 77.45-19.75 78.4-17.05L78.4-17.05Q80.84-10.15 81.34-10.15L81.34-10.15Q81.65-10.15 82.5-15.55L82.5-15.55Q82.7-16.55 82.9-17.73 83.09-18.9 83.34-20.25L83.34-20.25Q84.65-26.95 86.05-32.95L86.05-32.95Q86.59-35.25 89.4-35.25L89.4-35.25Q91.15-35.25 92.3-34.35 93.45-33.45 93.45-32.05L93.45-32.05Q93.45-31.65 93.3-31.1L93.3-31.1Q92.2-26.95 91-21.7L91-21.7 90.3-18.75Q89.5-15.4 88.67-11.3 87.84-7.2 87.59-6.05L87.59-6.05 87.05-3.2Q86.75-1.7 85.59-0.9 84.45-0.1 82.65-0.1L82.65-0.1Q80.84-0.1 79.62-0.95 78.4-1.8 77.4-3.65L77.4-3.65Q77.25-3.9 75.95-6.65L75.95-6.65Q74.59-9.65 74.4-9.65L74.4-9.65Q74.2-9.65 73.4-7.3L73.4-7.3Q72.34-4.5 71.95-3.7L71.95-3.7Q70.15 0 66.84 0L66.84 0ZM111.34 0.5Q106.79 0.5 103.67-1.2 100.54-2.9 98.99-5.9 97.44-8.9 97.44-12.7L97.44-12.7Q97.44-16.5 99.22-19.48 100.99-22.45 104.07-24.1 107.14-25.75 110.94-25.75L110.94-25.75Q114.34-25.75 117.17-24.4 119.99-23.05 121.62-20.53 123.24-18 123.24-14.6L123.24-14.6Q123.24-12.45 122.47-11.53 121.69-10.6 119.84-10.6L119.84-10.6 103.69-10.6Q103.69-9.4 104.54-8.18 105.39-6.95 107.09-6.1 108.79-5.25 111.14-5.25L111.14-5.25Q113.24-5.25 114.44-5.88 115.64-6.5 116.94-7.75L116.94-7.75Q117.89-8.6 118.89-8.6L118.89-8.6Q120.04-8.6 121.04-7.73 122.04-6.85 122.04-5.75L122.04-5.75Q122.04-4.85 121.44-4L121.44-4Q120.39-2.35 117.89-0.93 115.39 0.5 111.34 0.5L111.34 0.5ZM103.69-15.1L116.64-15.1Q117.09-15.1 117.22-15.25 117.34-15.4 117.34-15.8L117.34-15.8Q117.34-17.75 115.47-19.05 113.59-20.35 110.84-20.35L110.84-20.35Q108.64-20.35 107.02-19.5 105.39-18.65 104.54-17.43 103.69-16.2 103.69-15.1L103.69-15.1ZM142.29-25.7Q145.79-25.7 148.69-24.13 151.59-22.55 153.31-19.63 155.04-16.7 155.04-12.85L155.04-12.85Q155.04-9.05 153.37-6.1 151.69-3.15 148.69-1.55 145.69 0.05 141.89 0.05L141.89 0.05Q139.74 0 137.39-0.95 135.04-1.9 134.14-2.95L134.14-2.95Q133.54-2.2 132.77-1.63 131.99-1.05 131.49-0.8L131.49-0.8Q130.79-0.45 129.94-0.45L129.94-0.45Q128.64-0.45 127.69-1.43 126.74-2.4 126.74-3.6L126.74-3.6Q126.74-4.5 127.59-5.35L127.59-5.35Q127.74-5.5 128.06-5.8 128.39-6.1 128.49-6.35L128.49-6.35Q128.74-6.8 128.74-9.65L128.74-9.65 128.64-18.85Q128.59-21.45 128.59-26.1L128.59-26.1 128.39-40.6Q128.34-41.95 129.44-42.75 130.54-43.55 132.09-43.55L132.09-43.55Q133.54-43.55 134.54-42.85 135.54-42.15 135.59-40.95L135.59-40.95Q135.64-40.15 135.74-32.3L135.74-32.3 135.89-23.65Q136.89-24.55 138.52-25.13 140.14-25.7 142.29-25.7L142.29-25.7ZM141.84-5.55Q144.44-5.55 146.12-7.6 147.79-9.65 147.79-13L147.79-13Q147.79-16.35 146.09-18.25 144.39-20.15 141.59-20.15L141.59-20.15Q139.59-20.15 138.14-19.28 136.69-18.4 135.99-17.4L135.99-17.4 135.99-13.8Q135.99-11.75 136.14-9.65L136.14-9.65Q136.24-8.05 137.99-6.8 139.74-5.55 141.84-5.55L141.84-5.55ZM161.49-15.65Q160.39-15.65 159.71-16.5 159.04-17.35 159.04-18.6L159.04-18.6Q159.04-19.85 159.79-20.65 160.54-21.45 161.69-21.45L161.69-21.45 167.19-21.45Q171.09-21.45 172.99-21.6L172.99-21.6Q174.44-21.7 175.29-20.9 176.14-20.1 176.14-18.65L176.14-18.65Q176.14-17.45 175.29-16.6 174.44-15.75 173.14-15.7L173.14-15.7Q170.74-15.6 168.94-15.6L168.94-15.6 161.49-15.65ZM181.14-3.4Q181.14-4.7 181.66-5.7 182.19-6.7 183.39-6.65L183.39-6.65 183.89-6.65Q184.34-12.35 184.34-19.2L184.34-19.2 184.29-27.45 184.04-27.4Q183.29-27.2 182.71-27.93 182.14-28.65 182.14-29.65L182.14-29.65Q182.14-31.05 182.96-31.98 183.79-32.9 185.64-33.65L185.64-33.65Q187.79-34.55 190.24-34.98 192.69-35.4 194.94-35.4L194.94-35.4Q199.14-35.4 202.41-34.23 205.69-33.05 207.51-30.83 209.34-28.6 209.34-25.55L209.34-25.55Q209.34-22.85 207.56-20.48 205.79-18.1 202.14-17.35L202.14-17.35Q205.74-16.4 207.31-14.38 208.89-12.35 208.89-9.8L208.89-9.8Q208.89-6.6 207.16-4.35 205.44-2.1 202.49-0.95 199.54 0.2 195.89 0.2L195.89 0.2Q193.69 0.2 190.29-0.05L190.29-0.05Q189.39 1.65 186.64 1.65L186.64 1.65Q184.34 1.65 183.54-0.2L183.54-0.2 183.29-0.2Q182.19-0.2 181.66-1.1 181.14-2 181.14-3.4L181.14-3.4ZM190.94-6.15Q192.89-6 195.04-6L195.04-6Q198.09-6 199.89-7.05 201.69-8.1 201.69-10.35L201.69-10.35Q201.69-12.8 200.01-13.78 198.34-14.75 196.19-14.75L196.19-14.75Q194.24-14.75 193.39-15.28 192.54-15.8 192.54-17.5L192.54-17.5Q192.54-19.1 193.46-19.75 194.39-20.4 196.09-20.4L196.09-20.4Q202.14-20.4 202.14-24.95L202.14-24.95Q202.14-27.1 200.29-28.28 198.44-29.45 194.74-29.45L194.74-29.45Q193.39-29.45 191.49-29L191.49-29Q191.59-25.15 191.59-19.2L191.59-19.2Q191.59-15.95 191.46-13.58 191.34-11.2 190.94-6.15L190.94-6.15ZM238.53-5.55Q239.48-5.4 240.01-4.85 240.53-4.3 240.53-2.9L240.53-2.9Q240.53-1.7 239.91-0.85 239.28 0 238.23 0L238.23 0Q236.08 0 234.93-0.53 233.78-1.05 232.83-2.45L232.83-2.45Q231.73-0.8 229.83-0.13 227.93 0.55 225.38 0.55L225.38 0.55Q219.73 0.55 216.78-2.7 213.83-5.95 213.83-11.75L213.83-11.75Q213.83-15.55 215.38-18.5 216.93-21.45 219.71-23.1 222.48-24.75 226.08-24.75L226.08-24.75Q227.88-24.75 229.43-24.05 230.98-23.35 231.78-22.2L231.78-22.2 231.88-22.85Q231.98-23.55 232.68-24.03 233.38-24.5 234.88-24.5L234.88-24.5Q236.48-24.5 237.23-23.85 237.98-23.2 237.98-22.2L237.98-22.2Q237.98-21.85 237.93-21.65L237.93-21.65Q237.63-19.95 237.33-15.95L237.33-15.95Q237.18-14.1 237.18-11.2L237.18-11.2 237.18-8.7Q237.18-7.25 237.43-6.48 237.68-5.7 238.53-5.55L238.53-5.55ZM230.18-9Q230.23-11.05 230.23-15.35L230.23-15.35Q230.23-17.05 229.11-18.13 227.98-19.2 226.23-19.2L226.23-19.2Q223.98-19.2 222.53-17.13 221.08-15.05 221.08-11.8L221.08-11.8Q221.08-8.7 222.38-6.85 223.68-5 225.88-5L225.88-5Q227.93-5 229.03-6.03 230.13-7.05 230.18-9L230.18-9ZM255.08 0.45Q251.63 0.45 248.93-1.18 246.23-2.8 245.08-5.5L245.08-5.5Q244.78-6.25 244.78-6.75L244.78-6.75Q244.78-7.8 245.88-8.75 246.98-9.7 248.28-9.7L248.28-9.7Q249.03-9.7 249.48-9.38 249.93-9.05 250.18-8.78 250.43-8.5 250.48-8.4L250.48-8.4Q251.93-6.7 252.88-6 253.83-5.3 255.18-5.3L255.18-5.3Q256.43-5.3 257.33-5.83 258.23-6.35 258.23-7.3L258.23-7.3Q258.23-8.35 257.18-8.95 256.13-9.55 253.78-10.3L253.78-10.3Q251.18-11.2 249.56-12 247.93-12.8 246.71-14.38 245.48-15.95 245.48-18.4L245.48-18.4Q245.48-20.85 246.88-22.63 248.28-24.4 250.61-25.35 252.93-26.3 255.63-26.3L255.63-26.3Q258.53-26.3 260.66-25.23 262.78-24.15 263.88-22.38 264.98-20.6 264.98-18.6L264.98-18.6Q264.98-17.25 264.23-16.55 263.48-15.85 261.73-15.85L261.73-15.85Q260.18-15.85 259.61-16.35 259.03-16.85 258.88-17.75L258.88-17.75Q258.73-19 258.11-19.75 257.48-20.5 255.63-20.5L255.63-20.5Q254.23-20.5 253.46-20 252.68-19.5 252.68-18.6L252.68-18.6Q252.68-17.5 253.76-16.9 254.83-16.3 257.23-15.6L257.23-15.6Q259.78-14.8 261.43-14.03 263.08-13.25 264.28-11.73 265.48-10.2 265.48-7.7L265.48-7.7Q265.48-4.85 263.88-3 262.28-1.15 259.88-0.35 257.48 0.45 255.08 0.45L255.08 0.45ZM283.63 0.5Q279.08 0.5 275.95-1.2 272.83-2.9 271.28-5.9 269.73-8.9 269.73-12.7L269.73-12.7Q269.73-16.5 271.5-19.48 273.28-22.45 276.35-24.1 279.43-25.75 283.23-25.75L283.23-25.75Q286.63-25.75 289.45-24.4 292.28-23.05 293.9-20.53 295.53-18 295.53-14.6L295.53-14.6Q295.53-12.45 294.75-11.53 293.98-10.6 292.13-10.6L292.13-10.6 275.98-10.6Q275.98-9.4 276.83-8.18 277.68-6.95 279.38-6.1 281.08-5.25 283.43-5.25L283.43-5.25Q285.53-5.25 286.73-5.88 287.93-6.5 289.23-7.75L289.23-7.75Q290.18-8.6 291.18-8.6L291.18-8.6Q292.33-8.6 293.33-7.73 294.33-6.85 294.33-5.75L294.33-5.75Q294.33-4.85 293.73-4L293.73-4Q292.68-2.35 290.18-0.93 287.68 0.5 283.63 0.5L283.63 0.5ZM275.98-15.1L288.93-15.1Q289.38-15.1 289.5-15.25 289.63-15.4 289.63-15.8L289.63-15.8Q289.63-17.75 287.75-19.05 285.88-20.35 283.13-20.35L283.13-20.35Q280.93-20.35 279.3-19.5 277.68-18.65 276.83-17.43 275.98-16.2 275.98-15.1L275.98-15.1ZM312.98 0.5Q309.03 0.5 305.98-1.13 302.93-2.75 301.23-5.75 299.53-8.75 299.53-12.7L299.53-12.7Q299.53-16.65 301.18-19.6 302.83-22.55 305.83-24.15 308.83-25.75 312.78-25.75L312.78-25.75Q316.43-25.75 318.78-24.2L318.78-24.2 319.33-36.2 319.48-39.7Q319.53-40.9 320.53-41.63 321.53-42.35 323.03-42.35L323.03-42.35Q324.68-42.35 325.75-41.48 326.83-40.6 326.68-39.3L326.68-39.3Q326.38-36.8 326.1-28.23 325.83-19.65 325.83-13.1L325.83-13.1Q325.83-7.55 326.08-6.4L326.08-6.4Q326.33-5.45 327.38-3.85L327.38-3.85Q327.68-3.4 327.68-2.8L327.68-2.8Q327.68-1.55 326.5-0.53 325.33 0.5 323.93 0.5L323.93 0.5Q323.28 0.5 322.68 0.33 322.08 0.15 321.73-0.15L321.73-0.15Q320.23-1.3 319.53-2.95L319.53-2.95Q316.83 0.5 312.98 0.5L312.98 0.5ZM313.03-5.2Q314.53-5.2 315.83-6 317.13-6.8 317.9-8.08 318.68-9.35 318.68-10.7L318.68-10.7 318.68-18.15Q318.13-18.85 316.4-19.53 314.68-20.2 313.13-20.2L313.13-20.2Q310.13-20.2 308.45-18.18 306.78-16.15 306.78-12.6L306.78-12.6Q306.78-9.3 308.55-7.25 310.33-5.2 313.03-5.2L313.03-5.2ZM377.52-8L378.27-5.4 378.87-3.45Q379.02-2.95 379.02-2.5L379.02-2.5Q379.02-1.05 377.8-0.25 376.57 0.55 374.92 0.55L374.92 0.55Q373.62 0.55 372.67 0 371.72-0.55 371.42-1.55L371.42-1.55 369.72-8 359.52-8.05 357.77-1.7Q357.47-0.55 356.55-0.03 355.62 0.5 354.32 0.5L354.32 0.5Q352.67 0.5 351.42-0.33 350.17-1.15 350.17-2.5L350.17-2.5Q350.17-3 350.32-3.5L350.32-3.5 356.07-20.8 358.87-29.35Q360.02-32.75 361.37-34.18 362.72-35.6 365.02-35.6L365.02-35.6Q367.22-35.6 368.5-34.33 369.77-33.05 370.82-29.8L370.82-29.8Q373.57-21.1 375.62-14.35L375.62-14.35 376.97-14.35Q379.42-14.35 379.42-11.2L379.42-11.2Q379.42-8 377.57-8L377.57-8 377.52-8ZM361.42-14.5L368.02-14.45 367.37-16.8 366.12-21.2 365.62-22.95Q365.32-24.05 365.12-24.55 364.92-25.05 364.72-25.05L364.72-25.05Q364.47-25.05 364.32-24.6 364.17-24.15 363.87-23L363.87-23 363.47-21.55 361.42-14.5ZM402.32-6.65Q405.52-6.6 405.52-3.4L405.52-3.4Q405.52-0.1 402.27-0.1L402.27-0.1 387.27-0.3Q385.62-0.35 384.94-1.3 384.27-2.25 384.27-3.55L384.27-3.55Q384.27-5.2 385.14-6.03 386.02-6.85 387.27-6.85L387.27-6.85 391.42-6.8Q392.07-17.85 392.12-28.95L392.12-28.95Q389.97-28.8 388.52-28.65L388.52-28.65 386.87-28.55Q385.47-28.55 384.74-29.4 384.02-30.25 384.02-31.8L384.02-31.8Q384.02-33.4 384.74-34.15 385.47-34.9 386.87-35.1L386.87-35.1Q387.97-35.25 390.77-35.4 393.57-35.55 396.37-35.55L396.37-35.55Q399.07-35.55 402.67-35.25L402.67-35.25Q404.07-35.15 404.79-34.27 405.52-33.4 405.52-32L405.52-32Q405.52-28.85 402.37-28.85L402.37-28.85Q401.62-28.85 399.37-29L399.37-29Q399.27-15.4 398.62-6.7L398.62-6.7 402.32-6.65ZM452.21-5.55Q453.16-5.4 453.69-4.85 454.21-4.3 454.21-2.9L454.21-2.9Q454.21-1.7 453.59-0.85 452.96 0 451.91 0L451.91 0Q449.76 0 448.61-0.53 447.46-1.05 446.51-2.45L446.51-2.45Q445.41-0.8 443.51-0.13 441.61 0.55 439.06 0.55L439.06 0.55Q433.41 0.55 430.46-2.7 427.51-5.95 427.51-11.75L427.51-11.75Q427.51-15.55 429.06-18.5 430.61-21.45 433.39-23.1 436.16-24.75 439.76-24.75L439.76-24.75Q441.56-24.75 443.11-24.05 444.66-23.35 445.46-22.2L445.46-22.2 445.56-22.85Q445.66-23.55 446.36-24.03 447.06-24.5 448.56-24.5L448.56-24.5Q450.16-24.5 450.91-23.85 451.66-23.2 451.66-22.2L451.66-22.2Q451.66-21.85 451.61-21.65L451.61-21.65Q451.31-19.95 451.01-15.95L451.01-15.95Q450.86-14.1 450.86-11.2L450.86-11.2 450.86-8.7Q450.86-7.25 451.11-6.48 451.36-5.7 452.21-5.55L452.21-5.55ZM443.86-9Q443.91-11.05 443.91-15.35L443.91-15.35Q443.91-17.05 442.79-18.13 441.66-19.2 439.91-19.2L439.91-19.2Q437.66-19.2 436.21-17.13 434.76-15.05 434.76-11.8L434.76-11.8Q434.76-8.7 436.06-6.85 437.36-5 439.56-5L439.56-5Q441.61-5 442.71-6.03 443.81-7.05 443.86-9L443.86-9ZM468.76 0.45Q465.31 0.45 462.61-1.18 459.91-2.8 458.76-5.5L458.76-5.5Q458.46-6.25 458.46-6.75L458.46-6.75Q458.46-7.8 459.56-8.75 460.66-9.7 461.96-9.7L461.96-9.7Q462.71-9.7 463.16-9.38 463.61-9.05 463.86-8.78 464.11-8.5 464.16-8.4L464.16-8.4Q465.61-6.7 466.56-6 467.51-5.3 468.86-5.3L468.86-5.3Q470.11-5.3 471.01-5.83 471.91-6.35 471.91-7.3L471.91-7.3Q471.91-8.35 470.86-8.95 469.81-9.55 467.46-10.3L467.46-10.3Q464.86-11.2 463.24-12 461.61-12.8 460.39-14.38 459.16-15.95 459.16-18.4L459.16-18.4Q459.16-20.85 460.56-22.63 461.96-24.4 464.29-25.35 466.61-26.3 469.31-26.3L469.31-26.3Q472.21-26.3 474.34-25.23 476.46-24.15 477.56-22.38 478.66-20.6 478.66-18.6L478.66-18.6Q478.66-17.25 477.91-16.55 477.16-15.85 475.41-15.85L475.41-15.85Q473.86-15.85 473.29-16.35 472.71-16.85 472.56-17.75L472.56-17.75Q472.41-19 471.79-19.75 471.16-20.5 469.31-20.5L469.31-20.5Q467.91-20.5 467.14-20 466.36-19.5 466.36-18.6L466.36-18.6Q466.36-17.5 467.44-16.9 468.51-16.3 470.91-15.6L470.91-15.6Q473.46-14.8 475.11-14.03 476.76-13.25 477.96-11.73 479.16-10.2 479.16-7.7L479.16-7.7Q479.16-4.85 477.56-3 475.96-1.15 473.56-0.35 471.16 0.45 468.76 0.45L468.76 0.45ZM529.75-8L530.5-5.4 531.11-3.45Q531.25-2.95 531.25-2.5L531.25-2.5Q531.25-1.05 530.03-0.25 528.81 0.55 527.15 0.55L527.15 0.55Q525.86 0.55 524.9 0 523.96-0.55 523.65-1.55L523.65-1.55 521.96-8 511.76-8.05 510.01-1.7Q509.71-0.55 508.78-0.03 507.86 0.5 506.56 0.5L506.56 0.5Q504.91 0.5 503.66-0.33 502.41-1.15 502.41-2.5L502.41-2.5Q502.41-3 502.56-3.5L502.56-3.5 508.31-20.8 511.11-29.35Q512.25-32.75 513.61-34.18 514.96-35.6 517.25-35.6L517.25-35.6Q519.46-35.6 520.73-34.33 522-33.05 523.06-29.8L523.06-29.8Q525.81-21.1 527.86-14.35L527.86-14.35 529.21-14.35Q531.65-14.35 531.65-11.2L531.65-11.2Q531.65-8 529.81-8L529.81-8 529.75-8ZM513.65-14.5L520.25-14.45 519.61-16.8 518.36-21.2 517.86-22.95Q517.56-24.05 517.36-24.55 517.15-25.05 516.96-25.05L516.96-25.05Q516.71-25.05 516.56-24.6 516.4-24.15 516.11-23L516.11-23 515.71-21.55 513.65-14.5ZM568.4 0.05Q564.65 0.05 561.67-1.53 558.7-3.1 557.02-5.68 555.35-8.25 555.35-11.2L555.35-11.2Q555.35-13.1 556.32-13.95 557.3-14.8 558.85-14.8L558.85-14.8Q562.5-14.8 562.65-11.75L562.65-11.75Q562.8-9.2 564.5-7.83 566.2-6.45 568.4-6.45L568.4-6.45Q570.3-6.45 571.8-7.3 573.3-8.15 573.3-9.8L573.3-9.8Q573.3-11.1 572.35-11.98 571.4-12.85 570.12-13.33 568.85-13.8 566.6-14.45L566.6-14.45Q563.7-15.25 561.45-16.2 559.2-17.15 557.22-19.28 555.25-21.4 555.25-24.75L555.25-24.75Q555.25-27.8 556.92-30.25 558.6-32.7 561.45-34.08 564.3-35.45 567.7-35.45L567.7-35.45Q571.25-35.45 574.12-33.98 577-32.5 578.65-30.05 580.3-27.6 580.3-24.9L580.3-24.9Q580.3-21.6 576.7-21.6L576.7-21.6Q575.15-21.6 574.37-22.35 573.6-23.1 573.15-24.8L573.15-24.8Q572.7-26.5 571.32-27.75 569.95-29 567.7-29L567.7-29Q565.5-29 564-27.83 562.5-26.65 562.5-24.65L562.5-24.65Q562.5-23.25 563.62-22.6 564.75-21.95 567.95-21L567.95-21Q568.25-20.9 568.65-20.78 569.05-20.65 569.5-20.5L569.5-20.5Q572.25-19.65 574.55-18.55 576.85-17.45 578.7-15.3 580.55-13.15 580.55-9.95L580.55-9.95Q580.55-7.05 578.92-4.78 577.3-2.5 574.52-1.23 571.75 0.05 568.4 0.05L568.4 0.05ZM599.45 0.5Q594.9 0.5 591.77-1.2 588.65-2.9 587.1-5.9 585.55-8.9 585.55-12.7L585.55-12.7Q585.55-16.5 587.32-19.48 589.1-22.45 592.17-24.1 595.25-25.75 599.05-25.75L599.05-25.75Q602.45-25.75 605.27-24.4 608.1-23.05 609.72-20.53 611.35-18 611.35-14.6L611.35-14.6Q611.35-12.45 610.57-11.53 609.8-10.6 607.95-10.6L607.95-10.6 591.8-10.6Q591.8-9.4 592.65-8.18 593.5-6.95 595.2-6.1 596.9-5.25 599.25-5.25L599.25-5.25Q601.35-5.25 602.55-5.88 603.75-6.5 605.05-7.75L605.05-7.75Q606-8.6 607-8.6L607-8.6Q608.15-8.6 609.15-7.73 610.15-6.85 610.15-5.75L610.15-5.75Q610.15-4.85 609.55-4L609.55-4Q608.5-2.35 606-0.93 603.5 0.5 599.45 0.5L599.45 0.5ZM591.8-15.1L604.75-15.1Q605.2-15.1 605.32-15.25 605.45-15.4 605.45-15.8L605.45-15.8Q605.45-17.75 603.57-19.05 601.7-20.35 598.95-20.35L598.95-20.35Q596.75-20.35 595.12-19.5 593.5-18.65 592.65-17.43 591.8-16.2 591.8-15.1L591.8-15.1ZM630.19-25.95Q632.19-25.95 633.89-25.03 635.59-24.1 636.59-22.4 637.59-20.7 637.59-18.45L637.59-18.45Q637.59-15.2 635.47-13.43 633.34-11.65 629.99-11.65L629.99-11.65Q628.24-11.65 627.54-12.18 626.84-12.7 626.84-13.95L626.84-13.95Q626.84-15.15 627.34-15.63 627.84-16.1 628.74-16.2L628.74-16.2Q631.69-16.5 631.69-18.65L631.69-18.65Q631.69-19.55 631.27-20.03 630.84-20.5 630.09-20.5L630.09-20.5Q628.74-20.5 627.59-18.98 626.44-17.45 625.69-15.43 624.94-13.4 624.74-12L624.74-12Q624.39-9.8 624.39-4.2L624.39-4.2Q624.39-1.5 623.62-0.53 622.84 0.45 620.89 0.45L620.89 0.45Q619.09 0.45 618.17-0.25 617.24-0.95 617.19-2.4L617.19-2.4 617.19-4.7 617.19-10.5Q617.19-13.7 617.04-15.93 616.89-18.15 616.54-21.65L616.54-21.65 616.34-23.7Q616.24-24.95 617.17-25.75 618.09-26.55 619.74-26.55L619.74-26.55Q622.54-26.55 622.74-24.05L622.74-24.05Q622.84-22.85 622.94-20.65L622.94-20.65Q623.94-23 625.77-24.48 627.59-25.95 630.19-25.95L630.19-25.95ZM652.74 0Q650.24 0 648.19-2.63 646.14-5.25 644.19-10.75L644.19-10.75Q643.04-13.95 642.22-17.32 641.39-20.7 641.39-22.1L641.39-22.1Q641.39-23.6 642.39-24.43 643.39-25.25 644.99-25.25L644.99-25.25Q646.39-25.25 647.39-24.58 648.39-23.9 648.59-22.6L648.59-22.6Q649.34-17.65 650.39-13.75L650.39-13.75Q651.04-11.3 651.74-9.4 652.44-7.5 652.74-7.5L652.74-7.5Q653.09-7.5 654.07-9.75 655.04-12 655.49-13.9L655.49-13.9Q656.44-17.8 656.74-19.28 657.04-20.75 657.24-22.75L657.24-22.75Q657.39-23.95 658.39-24.73 659.39-25.5 660.94-25.5L660.94-25.5Q662.54-25.5 663.52-24.65 664.49-23.8 664.49-22.2L664.49-22.2Q664.49-20.75 663.67-17.57 662.84-14.4 661.54-10.9L661.54-10.9Q659.44-5.35 657.34-2.68 655.24 0 652.74 0L652.74 0ZM674.94-26.1Q672.94-26.1 671.66-27.38 670.39-28.65 670.39-30.6L670.39-30.6Q670.39-32.55 671.66-33.77 672.94-35 674.99-35L674.99-35Q676.99-35 678.24-33.77 679.49-32.55 679.49-30.65L679.49-30.65Q679.49-28.7 678.21-27.4 676.94-26.1 674.94-26.1L674.94-26.1ZM674.24-0.3Q672.64-0.3 671.59-1.1 670.54-1.9 670.59-3.25L670.59-3.25 670.99-21.7Q671.04-23.05 672.04-23.83 673.04-24.6 674.64-24.6L674.64-24.6Q676.29-24.6 677.34-23.8 678.39-23 678.34-21.6L678.34-21.6 677.94-3.2Q677.89-1.85 676.86-1.07 675.84-0.3 674.24-0.3L674.24-0.3ZM698.19 0.05Q694.49 0.05 691.56-1.5 688.64-3.05 687.01-5.85 685.39-8.65 685.39-12.3L685.39-12.3Q685.39-16.05 687.09-19.13 688.79-22.2 691.81-23.98 694.84-25.75 698.64-25.75L698.64-25.75Q702.69-25.75 705.86-23.8 709.04-21.85 710.24-18.75L710.24-18.75Q710.64-17.8 710.64-17.1L710.64-17.1Q710.64-15.45 708.34-14.9L708.34-14.9Q707.69-14.75 707.14-14.75L707.14-14.75Q706.14-14.75 705.51-15.28 704.89-15.8 704.14-17L704.14-17Q703.19-18.45 701.99-19.33 700.79-20.2 699.04-20.2L699.04-20.2Q696.24-20.2 694.44-17.93 692.64-15.65 692.64-12.2L692.64-12.2Q692.64-9.05 694.26-7.28 695.89-5.5 698.99-5.5L698.99-5.5Q701.94-5.5 703.36-7.03 704.79-8.55 704.79-10.6L704.79-10.6Q704.79-11.4 705.61-12.08 706.44-12.75 707.84-12.75L707.84-12.75Q709.54-12.75 710.41-12.1 711.29-11.45 711.29-9.8L711.29-9.8Q711.29-7.3 709.99-5.05 708.69-2.8 705.76-1.38 702.84 0.05 698.19 0.05L698.19 0.05ZM729.18 0.5Q724.63 0.5 721.51-1.2 718.38-2.9 716.83-5.9 715.28-8.9 715.28-12.7L715.28-12.7Q715.28-16.5 717.06-19.48 718.83-22.45 721.91-24.1 724.98-25.75 728.78-25.75L728.78-25.75Q732.18-25.75 735.01-24.4 737.83-23.05 739.46-20.53 741.08-18 741.08-14.6L741.08-14.6Q741.08-12.45 740.31-11.53 739.53-10.6 737.68-10.6L737.68-10.6 721.53-10.6Q721.53-9.4 722.38-8.18 723.23-6.95 724.93-6.1 726.63-5.25 728.98-5.25L728.98-5.25Q731.08-5.25 732.28-5.88 733.48-6.5 734.78-7.75L734.78-7.75Q735.73-8.6 736.73-8.6L736.73-8.6Q737.88-8.6 738.88-7.73 739.88-6.85 739.88-5.75L739.88-5.75Q739.88-4.85 739.28-4L739.28-4Q738.23-2.35 735.73-0.93 733.23 0.5 729.18 0.5L729.18 0.5ZM721.53-15.1L734.48-15.1Q734.93-15.1 735.06-15.25 735.18-15.4 735.18-15.8L735.18-15.8Q735.18-17.75 733.31-19.05 731.43-20.35 728.68-20.35L728.68-20.35Q726.48-20.35 724.86-19.5 723.23-18.65 722.38-17.43 721.53-16.2 721.53-15.1L721.53-15.1ZM774.98-37Q778.88-37 781-34.88 783.13-32.75 783.13-29.3L783.13-29.3Q783.13-27.25 782.28-26.33 781.43-25.4 779.58-25.4L779.58-25.4Q776.23-25.4 775.98-28.45L775.98-28.45Q775.93-28.75 775.93-29.55 775.93-30.35 775.65-30.8 775.38-31.25 774.73-31.25L774.73-31.25Q774.18-31.25 773.93-30.85 773.68-30.45 773.58-29.45 773.48-28.45 773.43-26.2L773.43-26.2Q773.38-24.7 773.38-21.4L773.38-21.4 776.08-21.4Q778.48-21.4 778.48-18.7L778.48-18.7Q778.48-16.05 775.98-16.05L775.98-16.05Q774.33-16.05 773.43-16L773.43-16Q773.48-10.55 773.73-2.95L773.73-2.95Q773.78-1.6 772.78-0.8 771.78 0 770.18 0L770.18 0Q768.63 0 767.63-0.78 766.63-1.55 766.58-2.85L766.58-2.85Q766.38-8.9 766.33-15.85L766.33-15.85 765.18-15.85Q763.48-15.85 762.78-16.55 762.08-17.25 762.08-18.65L762.08-18.65Q762.08-19.95 762.68-20.68 763.28-21.4 764.88-21.4L764.88-21.4 766.23-21.4 766.18-26.6Q766.18-31.65 768.48-34.33 770.78-37 774.98-37L774.98-37ZM797.78 0.15Q791.43 0.15 787.7-3.18 783.98-6.5 783.98-12.5L783.98-12.5Q783.98-16.4 785.63-19.45 787.28-22.5 790.3-24.2 793.33-25.9 797.43-25.9L797.43-25.9Q801.58-25.9 804.73-24.15 807.88-22.4 809.6-19.28 811.33-16.15 811.33-12.15L811.33-12.15Q811.33-6.3 807.68-3.08 804.03 0.15 797.78 0.15L797.78 0.15ZM797.68-5.4Q800.73-5.4 802.4-7.13 804.08-8.85 804.08-12.25L804.08-12.25Q804.08-15.6 802.45-17.98 800.83-20.35 797.68-20.35L797.68-20.35Q794.73-20.35 792.98-18.2 791.23-16.05 791.23-12.45L791.23-12.45Q791.23-8.95 792.93-7.18 794.63-5.4 797.68-5.4L797.68-5.4ZM829.67-25.95Q831.67-25.95 833.37-25.03 835.07-24.1 836.07-22.4 837.07-20.7 837.07-18.45L837.07-18.45Q837.07-15.2 834.95-13.43 832.82-11.65 829.47-11.65L829.47-11.65Q827.72-11.65 827.02-12.18 826.32-12.7 826.32-13.95L826.32-13.95Q826.32-15.15 826.82-15.63 827.32-16.1 828.22-16.2L828.22-16.2Q831.17-16.5 831.17-18.65L831.17-18.65Q831.17-19.55 830.75-20.03 830.32-20.5 829.57-20.5L829.57-20.5Q828.22-20.5 827.07-18.98 825.92-17.45 825.17-15.43 824.42-13.4 824.22-12L824.22-12Q823.87-9.8 823.87-4.2L823.87-4.2Q823.87-1.5 823.1-0.53 822.32 0.45 820.37 0.45L820.37 0.45Q818.57 0.45 817.65-0.25 816.72-0.95 816.67-2.4L816.67-2.4 816.67-4.7 816.67-10.5Q816.67-13.7 816.52-15.93 816.37-18.15 816.02-21.65L816.02-21.65 815.82-23.7Q815.72-24.95 816.65-25.75 817.57-26.55 819.22-26.55L819.22-26.55Q822.02-26.55 822.22-24.05L822.22-24.05Q822.32-22.85 822.42-20.65L822.42-20.65Q823.42-23 825.25-24.48 827.07-25.95 829.67-25.95L829.67-25.95ZM874.42-28.75Q872.37-28.75 871.22-28.7L871.22-28.7Q871.42-24.3 871.47-20.85L871.47-20.85Q872.17-20.9 873.67-20.9L873.67-20.9Q876.52-20.9 878.39-20.8 880.27-20.7 881.72-20.35L881.72-20.35Q883.12-20 883.77-19.25 884.42-18.5 884.42-17.2L884.42-17.2Q884.42-15.75 883.64-14.85 882.87-13.95 881.27-14.1L881.27-14.1Q877.27-14.5 873.87-14.5L873.87-14.5Q872.22-14.5 871.47-14.45L871.47-14.45Q871.42-9.8 871.12-4.8L871.12-4.8 871.02-3.05Q870.92-1.7 869.99-0.88 869.07-0.05 867.37-0.05L867.37-0.05Q865.62-0.05 864.62-0.9 863.62-1.75 863.72-3.1L863.72-3.1Q864.17-8.7 864.22-13.95L864.22-13.95 863.12-13.8Q861.97-13.65 861.24-14.6 860.52-15.55 860.52-17.05L860.52-17.05Q860.52-18.65 861.34-19.33 862.17-20 863.67-20.25L863.67-20.25 864.17-20.35Q864.12-25.05 863.87-28.55L863.87-28.55 863.47-28.55Q861.87-28.55 861.12-29.25 860.37-29.95 860.37-31.7L860.37-31.7Q860.37-33.35 860.99-34.02 861.62-34.7 862.82-34.85L862.82-34.85 863.37-34.9Q863.32-35.05 863.32-35.25L863.32-35.25Q863.22-36.5 864.24-37.25 865.27-38 867.07-38L867.07-38Q870.37-38 870.67-35.3L870.67-35.3 870.67-35.15 874.72-35.15Q877.37-35.15 880.09-34.98 882.82-34.8 884.07-34.55L884.07-34.55Q885.62-34.25 886.27-33.43 886.92-32.6 886.92-31.35L886.92-31.35Q886.92-29.85 886.12-28.95 885.32-28.05 883.92-28.2L883.92-28.2Q878.67-28.75 874.42-28.75L874.42-28.75ZM897.37-26.1Q895.37-26.1 894.09-27.38 892.82-28.65 892.82-30.6L892.82-30.6Q892.82-32.55 894.09-33.77 895.37-35 897.42-35L897.42-35Q899.42-35 900.67-33.77 901.92-32.55 901.92-30.65L901.92-30.65Q901.92-28.7 900.64-27.4 899.37-26.1 897.37-26.1L897.37-26.1ZM896.67-0.3Q895.07-0.3 894.02-1.1 892.97-1.9 893.02-3.25L893.02-3.25 893.42-21.7Q893.47-23.05 894.47-23.83 895.47-24.6 897.07-24.6L897.07-24.6Q898.72-24.6 899.77-23.8 900.82-23 900.77-21.6L900.77-21.6 900.37-3.2Q900.32-1.85 899.29-1.07 898.27-0.3 896.67-0.3L896.67-0.3ZM918.36 0.45Q914.91 0.45 912.21-1.18 909.51-2.8 908.36-5.5L908.36-5.5Q908.06-6.25 908.06-6.75L908.06-6.75Q908.06-7.8 909.16-8.75 910.26-9.7 911.56-9.7L911.56-9.7Q912.31-9.7 912.76-9.38 913.21-9.05 913.46-8.78 913.71-8.5 913.76-8.4L913.76-8.4Q915.21-6.7 916.16-6 917.11-5.3 918.46-5.3L918.46-5.3Q919.71-5.3 920.61-5.83 921.51-6.35 921.51-7.3L921.51-7.3Q921.51-8.35 920.46-8.95 919.41-9.55 917.06-10.3L917.06-10.3Q914.46-11.2 912.84-12 911.21-12.8 909.99-14.38 908.76-15.95 908.76-18.4L908.76-18.4Q908.76-20.85 910.16-22.63 911.56-24.4 913.89-25.35 916.21-26.3 918.91-26.3L918.91-26.3Q921.81-26.3 923.94-25.23 926.06-24.15 927.16-22.38 928.26-20.6 928.26-18.6L928.26-18.6Q928.26-17.25 927.51-16.55 926.76-15.85 925.01-15.85L925.01-15.85Q923.46-15.85 922.89-16.35 922.31-16.85 922.16-17.75L922.16-17.75Q922.01-19 921.39-19.75 920.76-20.5 918.91-20.5L918.91-20.5Q917.51-20.5 916.74-20 915.96-19.5 915.96-18.6L915.96-18.6Q915.96-17.5 917.04-16.9 918.11-16.3 920.51-15.6L920.51-15.6Q923.06-14.8 924.71-14.03 926.36-13.25 927.56-11.73 928.76-10.2 928.76-7.7L928.76-7.7Q928.76-4.85 927.16-3 925.56-1.15 923.16-0.35 920.76 0.45 918.36 0.45L918.36 0.45ZM956.86-19Q958.06-14.05 958.06-2.9L958.06-2.9Q958.06-1.7 957.01-0.95 955.96-0.2 954.46-0.2L954.46-0.2Q952.91-0.2 951.86-1 950.81-1.8 950.81-3.25L950.81-3.25Q950.81-9.4 950.69-12.8 950.56-16.2 950.06-18.3L950.06-18.3Q949.71-19.7 949.01-20.13 948.31-20.55 947.46-20.55L947.46-20.55Q944.71-20.55 943.41-18.48 942.11-16.4 942.11-13.05L942.11-13.05 942.11-2.75Q942.11-1.65 941.06-0.93 940.01-0.2 938.51-0.2L938.51-0.2Q937.01-0.2 935.96-0.95 934.91-1.7 934.91-2.8L934.91-2.8Q934.91-12.4 935.16-21.9L935.16-21.9Q935.26-25.45 935.66-32.8L935.66-32.8 935.86-36.35Q935.96-37.65 936.91-38.48 937.86-39.3 939.46-39.3L939.46-39.3Q941.01-39.3 941.91-38.55 942.81-37.8 942.76-36.55L942.76-36.55Q942.36-30.65 942.06-23.8L942.06-23.8Q943.21-24.85 944.91-25.48 946.61-26.1 948.76-26.1L948.76-26.1Q952.11-26.1 954.04-24.38 955.96-22.65 956.86-19L956.86-19ZM975.96 0.5Q971.41 0.5 968.28-1.2 965.16-2.9 963.61-5.9 962.06-8.9 962.06-12.7L962.06-12.7Q962.06-16.5 963.83-19.48 965.61-22.45 968.68-24.1 971.76-25.75 975.56-25.75L975.56-25.75Q978.96-25.75 981.78-24.4 984.61-23.05 986.23-20.53 987.86-18 987.86-14.6L987.86-14.6Q987.86-12.45 987.08-11.53 986.31-10.6 984.46-10.6L984.46-10.6 968.31-10.6Q968.31-9.4 969.16-8.18 970.01-6.95 971.71-6.1 973.41-5.25 975.76-5.25L975.76-5.25Q977.86-5.25 979.06-5.88 980.26-6.5 981.56-7.75L981.56-7.75Q982.51-8.6 983.51-8.6L983.51-8.6Q984.66-8.6 985.66-7.73 986.66-6.85 986.66-5.75L986.66-5.75Q986.66-4.85 986.06-4L986.06-4Q985.01-2.35 982.51-0.93 980.01 0.5 975.96 0.5L975.96 0.5ZM968.31-15.1L981.26-15.1Q981.71-15.1 981.83-15.25 981.96-15.4 981.96-15.8L981.96-15.8Q981.96-17.75 980.08-19.05 978.21-20.35 975.46-20.35L975.46-20.35Q973.26-20.35 971.63-19.5 970.01-18.65 969.16-17.43 968.31-16.2 968.31-15.1L968.31-15.1ZM1006.71-25.95Q1008.71-25.95 1010.41-25.03 1012.11-24.1 1013.11-22.4 1014.11-20.7 1014.11-18.45L1014.11-18.45Q1014.11-15.2 1011.98-13.43 1009.86-11.65 1006.51-11.65L1006.51-11.65Q1004.76-11.65 1004.06-12.18 1003.36-12.7 1003.36-13.95L1003.36-13.95Q1003.36-15.15 1003.86-15.63 1004.36-16.1 1005.26-16.2L1005.26-16.2Q1008.21-16.5 1008.21-18.65L1008.21-18.65Q1008.21-19.55 1007.78-20.03 1007.36-20.5 1006.61-20.5L1006.61-20.5Q1005.26-20.5 1004.11-18.98 1002.96-17.45 1002.21-15.43 1001.46-13.4 1001.26-12L1001.26-12Q1000.91-9.8 1000.91-4.2L1000.91-4.2Q1000.91-1.5 1000.13-0.53 999.36 0.45 997.41 0.45L997.41 0.45Q995.61 0.45 994.68-0.25 993.76-0.95 993.71-2.4L993.71-2.4 993.71-4.7 993.71-10.5Q993.71-13.7 993.56-15.93 993.41-18.15 993.06-21.65L993.06-21.65 992.86-23.7Q992.76-24.95 993.68-25.75 994.61-26.55 996.26-26.55L996.26-26.55Q999.06-26.55 999.26-24.05L999.26-24.05Q999.36-22.85 999.46-20.65L999.46-20.65Q1000.46-23 1002.28-24.48 1004.11-25.95 1006.71-25.95L1006.71-25.95ZM1024.35-26.1Q1022.35-26.1 1021.08-27.38 1019.8-28.65 1019.8-30.6L1019.8-30.6Q1019.8-32.55 1021.08-33.77 1022.35-35 1024.4-35L1024.4-35Q1026.4-35 1027.65-33.77 1028.9-32.55 1028.9-30.65L1028.9-30.65Q1028.9-28.7 1027.63-27.4 1026.35-26.1 1024.35-26.1L1024.35-26.1ZM1023.65-0.3Q1022.05-0.3 1021-1.1 1019.95-1.9 1020-3.25L1020-3.25 1020.4-21.7Q1020.45-23.05 1021.45-23.83 1022.45-24.6 1024.05-24.6L1024.05-24.6Q1025.7-24.6 1026.75-23.8 1027.8-23 1027.75-21.6L1027.75-21.6 1027.35-3.2Q1027.3-1.85 1026.28-1.07 1025.25-0.3 1023.65-0.3L1023.65-0.3ZM1048.7 0.5Q1044.15 0.5 1041.03-1.2 1037.9-2.9 1036.35-5.9 1034.8-8.9 1034.8-12.7L1034.8-12.7Q1034.8-16.5 1036.58-19.48 1038.35-22.45 1041.43-24.1 1044.5-25.75 1048.3-25.75L1048.3-25.75Q1051.7-25.75 1054.53-24.4 1057.35-23.05 1058.98-20.53 1060.6-18 1060.6-14.6L1060.6-14.6Q1060.6-12.45 1059.83-11.53 1059.05-10.6 1057.2-10.6L1057.2-10.6 1041.05-10.6Q1041.05-9.4 1041.9-8.18 1042.75-6.95 1044.45-6.1 1046.15-5.25 1048.5-5.25L1048.5-5.25Q1050.6-5.25 1051.8-5.88 1053-6.5 1054.3-7.75L1054.3-7.75Q1055.25-8.6 1056.25-8.6L1056.25-8.6Q1057.4-8.6 1058.4-7.73 1059.4-6.85 1059.4-5.75L1059.4-5.75Q1059.4-4.85 1058.8-4L1058.8-4Q1057.75-2.35 1055.25-0.93 1052.75 0.5 1048.7 0.5L1048.7 0.5ZM1041.05-15.1L1054-15.1Q1054.45-15.1 1054.58-15.25 1054.7-15.4 1054.7-15.8L1054.7-15.8Q1054.7-17.75 1052.83-19.05 1050.95-20.35 1048.2-20.35L1048.2-20.35Q1046-20.35 1044.38-19.5 1042.75-18.65 1041.9-17.43 1041.05-16.2 1041.05-15.1L1041.05-15.1ZM1075.15 0.45Q1071.7 0.45 1069-1.18 1066.3-2.8 1065.15-5.5L1065.15-5.5Q1064.85-6.25 1064.85-6.75L1064.85-6.75Q1064.85-7.8 1065.95-8.75 1067.05-9.7 1068.35-9.7L1068.35-9.7Q1069.1-9.7 1069.55-9.38 1070-9.05 1070.25-8.78 1070.5-8.5 1070.55-8.4L1070.55-8.4Q1072-6.7 1072.95-6 1073.9-5.3 1075.25-5.3L1075.25-5.3Q1076.5-5.3 1077.4-5.83 1078.3-6.35 1078.3-7.3L1078.3-7.3Q1078.3-8.35 1077.25-8.95 1076.2-9.55 1073.85-10.3L1073.85-10.3Q1071.25-11.2 1069.62-12 1068-12.8 1066.77-14.38 1065.55-15.95 1065.55-18.4L1065.55-18.4Q1065.55-20.85 1066.95-22.63 1068.35-24.4 1070.67-25.35 1073-26.3 1075.7-26.3L1075.7-26.3Q1078.6-26.3 1080.72-25.23 1082.85-24.15 1083.95-22.38 1085.05-20.6 1085.05-18.6L1085.05-18.6Q1085.05-17.25 1084.3-16.55 1083.55-15.85 1081.8-15.85L1081.8-15.85Q1080.25-15.85 1079.67-16.35 1079.1-16.85 1078.95-17.75L1078.95-17.75Q1078.8-19 1078.17-19.75 1077.55-20.5 1075.7-20.5L1075.7-20.5Q1074.3-20.5 1073.52-20 1072.75-19.5 1072.75-18.6L1072.75-18.6Q1072.75-17.5 1073.82-16.9 1074.9-16.3 1077.3-15.6L1077.3-15.6Q1079.85-14.8 1081.5-14.03 1083.15-13.25 1084.35-11.73 1085.55-10.2 1085.55-7.7L1085.55-7.7Q1085.55-4.85 1083.95-3 1082.35-1.15 1079.95-0.35 1077.55 0.45 1075.15 0.45L1075.15 0.45Z" opacity="1" transform="matrix(1,0,0,1,0,0)" fill="#2257bf" class="undefined-text-1" data-fill-palette-color="secondary" id="text-1"></path></svg></g></svg></g></svg></g></svg></g><g transform="matrix(1,0,0,1,75.92204159999999,0)"><svg viewBox="0 0 245.65351679999995 258.3599370961956" height="258.3599370961956" width="245.65351679999995"><g><svg xmlns="http://www.w3.org/2000/svg" xmlns:xlink="http://www.w3.org/1999/xlink" version="1.1" x="0" y="0" viewBox="8 3 115.99990844726562 122" style="enable-background:new 0 0 128 128;" xml:space="preserve" height="258.3599370961956" width="245.65351679999995" class="icon-icon-0" data-fill-palette-color="accent" id="icon-0"><g fill="#2257bf" data-fill-palette-color="accent"><path d="M123.673 20.26c-0.407-0.369-1.04-0.341-1.413 0.067-6.068 6.676-8.572 27.033-9.6 43.673h-1.717c-0.121 2.087-0.235 4.07-0.337 5.883C111.613 69.322 112.769 69 114 69c0.585 0 1.151 0.08 1.695 0.216 0.071-1.76 0.156-3.503 0.251-5.216h-1.282c1.393-22.409 4.602-37.405 9.077-42.327C124.111 21.264 124.081 20.632 123.673 20.26z" fill="#2257bf" data-fill-palette-color="accent"></path><circle cx="15" cy="65" r="3.0" fill="#2257bf" data-fill-palette-color="accent"></circle><path d="M63.326 56h1.348c0.112 0 0.217 0.025 0.326 0.033V21h-2v35.033C63.11 56.025 63.214 56 63.326 56z" fill="#2257bf" data-fill-palette-color="accent"></path><path d="M42.034 37h1.299 0.003H61v-3H42.034C41.464 34 41 34.464 41 35.034v0.932C41 36.536 41.464 37 42.034 37z" fill="#2257bf" data-fill-palette-color="accent"></path><rect x="61" y="17" width="6" height="2" fill="#2257bf" data-fill-palette-color="accent"></rect><path d="M24.409 78.065c1.189-0.216 2.386-0.429 3.591-0.64v-2.578c0-2.007 1.226-3.732 2.969-4.468l-6.991-4.935c-0.098 1.99-0.834 3.814-2.022 5.26L24.409 78.065z" fill="#2257bf" data-fill-palette-color="accent"></path><rect x="67" y="44" width="12" height="8" fill="#2257bf" data-fill-palette-color="accent"></rect><path d="M65 3.98C65 3.439 64.552 3 64 3s-1 0.439-1 0.98V15h2V3.98z" fill="#2257bf" data-fill-palette-color="accent"></path><path d="M114 71c-2.757 0-5 2.243-5 5 0 1.218 0.45 2.373 1.249 3.285 1.991 0.364 4.072 0.736 6.15 1.092C118.005 79.497 119 77.844 119 76 119 73.243 116.757 71 114 71zM114 79c-1.654 0-3-1.346-3-3s1.346-3 3-3 3 1.346 3 3S115.654 79 114 79z" fill="#2257bf" data-fill-palette-color="accent"></path><circle cx="114" cy="76" r="1.0" fill="#2257bf" data-fill-palette-color="accent"></circle><path d="M69 74.059c10.84 0.273 20.199 1.526 29 3.021v-2.232C98 73.277 96.723 72 95.152 72H69V74.059z" fill="#2257bf" data-fill-palette-color="accent"></path><path d="M67 37h17.664 0.003 1.299C86.536 37 87 36.536 87 35.966v-0.932C87 34.464 86.536 34 85.966 34H67V37z" fill="#2257bf" data-fill-palette-color="accent"></path><path d="M16 73.941v5.662c1.53-0.276 3.031-0.552 4.441-0.812 0.659-0.121 1.319-0.242 1.981-0.364l-2.07-6.209C19.107 73.144 17.62 73.761 16 73.941z" fill="#2257bf" data-fill-palette-color="accent"></path><path d="M84.787 104.994c-7.345 0.791-12.472-2.619-15.787-6.295v19c7.155-4.446 15.721-7.281 24.787-8.195 6.109-0.616 10.902-1.849 14.507-3.807C101.498 104.417 92.751 104.14 84.787 104.994z" fill="#2257bf" data-fill-palette-color="accent"></path><path d="M69 70h18.755c-2.587-10.7-3.955-21.115-4.068-31H67v3h13c0.553 0 1 0.447 1 1v10c0 0.553-0.447 1-1 1H67v2.69c1.199 0.77 2 2.108 2 3.636V70z" fill="#2257bf" data-fill-palette-color="accent"></path><path d="M64.674 58h-1.348C62.044 58 61 59.044 61 60.326V125h6V60.326C67 59.044 65.956 58 64.674 58z" fill="#2257bf" data-fill-palette-color="accent"></path><rect x="49" y="44" width="12" height="8" fill="#2257bf" data-fill-palette-color="accent"></rect><path d="M117.712 82.628c-3.585-0.594-7.267-1.271-10.515-1.87C95.621 78.628 83.657 76.434 69 76.06v2.401c14.29 0.376 26.046 2.534 37.418 4.625 3.457 0.637 7.025 1.294 10.596 1.885 0.95 0.165 1.807-0.319 1.963-0.977 0.072-0.303-0.036-0.553-0.14-0.708C118.612 82.949 118.202 82.709 117.712 82.628z" fill="#2257bf" data-fill-palette-color="accent"></path><path d="M106.062 85.055C94.776 82.978 83.112 80.839 69 80.463v15.076c4.126 5.621 9.355 8.134 15.574 7.466 8.937-0.959 18.867-0.519 26.083 1.143 4.334-3.294 6.343-8.099 6.343-14.761V86.97c-0.106-0.009-0.21-0.008-0.316-0.026C113.1 86.351 109.521 85.692 106.062 85.055z" fill="#2257bf" data-fill-palette-color="accent"></path><path d="M61 54H48c-0.553 0-1-0.447-1-1V43c0-0.553 0.447-1 1-1h13v-3H44.313c-0.113 9.885-1.482 20.3-4.068 31H59v-9.674c0-1.528 0.801-2.866 2-3.636V54z" fill="#2257bf" data-fill-palette-color="accent"></path><path d="M11.312 86.944c-0.104 0.018-0.208 0.017-0.312 0.026v2.418c0 6.662 2.009 11.467 6.343 14.761 7.216-1.662 17.144-2.102 26.083-1.143 6.169 0.665 11.389-1.816 15.507-7.371 0.019-0.025 0.047-0.038 0.067-0.061V80.463c-14.107 0.376-25.767 2.515-37.044 4.589C18.479 85.692 14.9 86.351 11.312 86.944z" fill="#2257bf" data-fill-palette-color="accent"></path><path d="M15 72c3.859 0 7-3.141 7-7s-3.141-7-7-7-7 3.141-7 7S11.141 72 15 72zM15 60c2.757 0 5 2.243 5 5s-2.243 5-5 5-5-2.243-5-5S12.243 60 15 60z" fill="#2257bf" data-fill-palette-color="accent"></path><path d="M10.288 82.628c-0.49 0.081-0.9 0.321-1.125 0.659-0.104 0.155-0.212 0.405-0.14 0.709 0.156 0.656 1.037 1.133 1.959 0.976 3.574-0.591 7.143-1.248 10.595-1.884 11.384-2.094 23.138-4.25 37.423-4.626v-2.401c-14.649 0.373-26.608 2.566-38.175 4.693C17.555 81.356 13.873 82.034 10.288 82.628z" fill="#2257bf" data-fill-palette-color="accent"></path><path d="M43.213 104.994c-7.965-0.854-16.71-0.576-23.506 0.703 3.605 1.959 8.398 3.191 14.506 3.807 9.066 0.914 17.632 3.749 24.787 8.195V98.702C54.705 103.472 49.291 105.645 43.213 104.994z" fill="#2257bf" data-fill-palette-color="accent"></path><path d="M30 74.848v2.233c8.807-1.495 18.163-2.748 29-3.021V72H32.848C31.277 72 30 73.277 30 74.848z" fill="#2257bf" data-fill-palette-color="accent"></path></g></svg></g></svg></g><g></g></svg></g><defs></defs></svg><rect width="248.78845272034627" height="247.2" fill="none" stroke="none" visibility="hidden"></rect></g></svg></g></svg>