<svg xmlns="http://www.w3.org/2000/svg" version="1.1" xmlns:xlink="http://www.w3.org/1999/xlink" xmlns:svgjs="http://svgjs.dev/svgjs" width="1000" height="1000" viewBox="0 0 1000 1000"><rect width="1000" height="1000" fill="#ffffff"></rect><g transform="matrix(0.7,0,0,0.7,149.5757585541046,422.4133101796446)"><svg viewBox="0 0 396 88" data-background-color="#ffffff" preserveAspectRatio="xMidYMid meet" height="222" width="1000" xmlns="http://www.w3.org/2000/svg" xmlns:xlink="http://www.w3.org/1999/xlink"><g id="tight-bounds" transform="matrix(1,0,0,1,0.23999944653513694,-0.06416535269448786)"><svg viewBox="0 0 395.52 88.12833070538895" height="88.12833070538895" width="395.52"><g><svg viewBox="0 0 518.8310408177591 115.60404921472652" height="88.12833070538895" width="395.52"><g transform="matrix(1,0,0,1,123.31104081775923,15.97711534009607)"><svg viewBox="0 0 395.5199999999999 83.64981853453438" height="83.64981853453438" width="395.5199999999999"><g><svg viewBox="0 0 395.5199999999999 83.64981853453438" height="83.64981853453438" width="395.5199999999999"><g><svg viewBox="0 0 395.5199999999999 48.89971619637905" height="48.89971619637905" width="395.5199999999999"><g transform="matrix(1,0,0,1,0,0)"><svg width="395.5199999999999" viewBox="2.4000000953674316 -37.20000076293945 306.5299987792969 37.900001525878906" height="48.89971619637905" data-palette-color="#05688a"><path d="M2.4 0L6.1 0 6.1-3.6Q9.15 0.7 15.95 0.7L15.95 0.7Q22.15 0.7 24.88-1.98 27.6-4.65 27.6-9.85L27.6-9.85Q27.6-14.65 25.43-16.82 23.25-19 17.9-20.1L17.9-20.1 13.85-20.9Q10.2-21.65 9.08-22.83 7.95-24 7.95-26.75L7.95-26.75Q7.95-30 9.45-31.55 10.95-33.1 14.95-33.1L14.95-33.1Q22.35-33.1 23-26.65L23-26.65 26.7-26.65 26.7-36.5 23-36.5 23-33.3Q20.3-37.2 13.85-37.2L13.85-37.2Q7.85-37.2 5.33-34.5 2.8-31.8 2.8-26.65L2.8-26.65Q2.8-21.85 4.88-19.6 6.95-17.35 12.2-16.3L12.2-16.3 16.4-15.5Q19.9-14.8 21.18-13.55 22.45-12.3 22.45-9.3L22.45-9.3Q22.45-6.2 20.65-4.8 18.85-3.4 14.85-3.4L14.85-3.4Q10.6-3.4 8.4-5.48 6.2-7.55 6.1-11.4L6.1-11.4 2.4-11.4 2.4 0ZM38.9-3.4L38.9 0 51.25 0 51.25-3.4 47.65-3.4 47.65-12.65 57.3-33.1 59.7-33.1 59.7-36.5 49.55-36.5 49.55-33.1 52.15-33.1 45.1-17.65 38.05-33.1 40.6-33.1 40.6-36.5 30.45-36.5 30.45-33.1 32.85-33.1 42.5-12.65 42.5-3.4 38.9-3.4ZM85.7-36.5L85.7-33.1 88.7-33.1 88.7-8.6 72.05-36.5 63.5-36.5 63.5-33.1 66.5-33.1 66.5-3.4 63.5-3.4 63.5 0 74.65 0 74.65-3.4 71.65-3.4 71.65-27.85 88.3 0 93.84 0 93.84-33.1 96.84-33.1 96.84-36.5 85.7-36.5ZM123.34-27.6L127.09-27.6 127.09-36.5 100.04-36.5 100.04-27.6 103.84-27.6 103.84-32.5 110.99-32.5 110.99-3.4 106.89-3.4 106.89 0 120.24 0 120.24-3.4 116.14-3.4 116.14-32.5 123.34-32.5 123.34-27.6ZM151.79-3.4L151.79 0 162.94 0 162.94-3.4 159.94-3.4 159.94-33.1 162.94-33.1 162.94-36.5 151.79-36.5 151.79-33.1 154.79-33.1 154.79-20.3 138.94-20.3 138.94-33.1 141.94-33.1 141.94-36.5 130.79-36.5 130.79-33.1 133.79-33.1 133.79-3.4 130.79-3.4 130.79 0 141.94 0 141.94-3.4 138.94-3.4 138.94-16.2 154.79-16.2 154.79-3.4 151.79-3.4ZM169.54-3.4L169.54 0 195.19 0 195.19-8.85 191.44-8.85 191.44-4.05 177.69-4.05 177.69-16.5 190.99-16.5 190.99-20.6 177.69-20.6 177.69-32.45 190.44-32.45 190.44-27.8 194.19-27.8 194.19-36.5 169.54-36.5 169.54-33.1 172.54-33.1 172.54-3.4 169.54-3.4ZM221.74-27.6L225.49-27.6 225.49-36.5 198.44-36.5 198.44-27.6 202.24-27.6 202.24-32.5 209.39-32.5 209.39-3.4 205.29-3.4 205.29 0 218.64 0 218.64-3.4 214.54-3.4 214.54-32.5 221.74-32.5 221.74-27.6ZM229.18-36.5L229.18-33.1 232.48-33.1 232.48-3.4 229.18-3.4 229.18 0 240.93 0 240.93-3.4 237.63-3.4 237.63-33.1 240.93-33.1 240.93-36.5 229.18-36.5ZM272.98-36.5L269.28-36.5 269.28-33.35Q266.63-37.2 260.68-37.2L260.68-37.2Q257.18-37.2 254.68-36.35 252.18-35.5 250.68-34.05 249.18-32.6 248.33-30.1 247.48-27.6 247.18-24.88 246.88-22.15 246.88-18.25L246.88-18.25Q246.88-15.45 247.01-13.43 247.13-11.4 247.48-9.3 247.83-7.2 248.48-5.75 249.13-4.3 250.21-3 251.28-1.7 252.78-0.95 254.28-0.2 256.38 0.25 258.48 0.7 261.18 0.7L261.18 0.7Q264.68 0.7 266.98-0.13 269.28-0.95 270.51-2.7 271.73-4.45 272.26-6.4 272.78-8.35 272.98-11.35L272.98-11.35 268.78-11.55Q268.63-7.65 267.03-5.58 265.43-3.5 261.18-3.5L261.18-3.5Q258.68-3.5 256.96-4.17 255.23-4.85 254.26-5.9 253.28-6.95 252.78-9 252.28-11.05 252.16-13 252.03-14.95 252.03-18.25L252.03-18.25Q252.03-21.35 252.21-23.48 252.38-25.6 252.93-27.55 253.48-29.5 254.46-30.63 255.43-31.75 257.06-32.43 258.68-33.1 260.98-33.1L260.98-33.1Q265.18-33.1 267.13-31.05 269.08-29 269.33-24.7L269.33-24.7 272.98-24.7 272.98-36.5ZM295.73-36.5L288.93-36.5 278.08-3.4 275.78-3.4 275.78 0 286.13 0 286.13-3.4 283.13-3.4 285.63-11.2 298.98-11.2 301.53-3.4 298.53-3.4 298.53 0 308.93 0 308.93-3.4 306.58-3.4 295.73-36.5ZM286.98-15.25L292.33-31.85 297.73-15.25 286.98-15.25Z" opacity="1" transform="matrix(1,0,0,1,0,0)" fill="#000000" class="undefined-text-0" data-fill-palette-color="primary" id="text-0"></path></svg></g></svg></g><g transform="matrix(1,0,0,1,0,60.44376559715543)"><svg viewBox="0 0 375.7439999999999 23.20605293737895" height="23.20605293737895" width="375.7439999999999"><g transform="matrix(1,0,0,1,0,0)"><svg width="375.7439999999999" viewBox="-1.5399999618530273 -32.400001525878906 680.6499633789062 42.040000915527344" height="23.20605293737895" data-palette-color="#074e7e"><path d="M19.04-31.86L24.29-31.86 19.36 0 14.16 0 11.35-13.75 8.59 0 3.39 0-1.54-31.86 3.71-31.86 6.64-10.4 8.96-22.75 13.79-22.75 16.04-10.4 19.04-31.86ZM51-9.45L31.93-9.45Q32.3-7.1 34.16-5.55 36.03-4 39.18-4L39.18-4Q41.65-4 43.47-4.77 45.29-5.54 46.6-6.81L46.6-6.81 49.19-3.25Q46.99-1.05 44.54-0.24 42.09 0.56 39.18 0.56L39.18 0.56Q36.55 0.56 34.27-0.32 32-1.2 30.34-2.77 28.68-4.35 27.74-6.52 26.8-8.69 26.8-11.35L26.8-11.35Q26.8-13.94 27.67-16.13 28.54-18.31 30.11-19.91 31.69-21.51 33.88-22.4 36.08-23.29 38.74-23.29L38.74-23.29Q41.5-23.29 43.75-22.35 45.99-21.41 47.59-19.63 49.19-17.85 50.1-15.27 51-12.7 51-9.45L51-9.45ZM32.15-13.89L45.29-13.89Q44.89-16.09 43.02-17.42 41.14-18.75 38.74-18.75L38.74-18.75Q36.35-18.75 34.45-17.42 32.54-16.09 32.15-13.89L32.15-13.89ZM55.78 0L55.78-31.86 60.83-31.86 60.83-20.7Q62.28-22 63.75-22.64 65.23-23.29 67.13-23.29L67.13-23.29Q69.33-23.29 71.21-22.4 73.09-21.51 74.43-19.93 75.78-18.36 76.56-16.15 77.34-13.94 77.34-11.35L77.34-11.35Q77.34-8.74 76.56-6.54 75.78-4.35 74.43-2.77 73.09-1.2 71.21-0.32 69.33 0.56 67.13 0.56L67.13 0.56Q65.23 0.56 63.75-0.12 62.28-0.81 60.83-2.1L60.83-2.1 60.83 0 55.78 0ZM60.83-16.7L60.83-6.05Q61.74-5.05 63.14-4.53 64.55-4 65.84-4L65.84-4Q68.7-4 70.49-6.03 72.29-8.06 72.29-11.35L72.29-11.35Q72.29-14.65 70.49-16.7 68.7-18.75 65.84-18.75L65.84-18.75Q64.55-18.75 63.14-18.23 61.74-17.7 60.83-16.7L60.83-16.7ZM104.63-9.4L81.88-9.4 81.88-13.94 104.63-13.94 104.63-9.4ZM131.87-8.74L131.87-8.74Q131.87-4.39 128.92-2.2 125.97 0 120.52 0L120.52 0 110.37 0 110.37-31.86 119.96-31.86Q121.96-31.86 123.89-31.53 125.82-31.2 127.35-30.3 128.87-29.39 129.82-27.77 130.78-26.15 130.78-23.56L130.78-23.56Q130.78-21.14 129.54-19.14 128.31-17.14 125.82-16.26L125.82-16.26Q128.87-15.31 130.37-13.6 131.87-11.89 131.87-8.74ZM125.77-22.9L125.77-22.9Q125.77-24.29 125.25-25.17 124.72-26.05 123.89-26.53 123.06-27 122.04-27.15 121.01-27.29 119.96-27.29L119.96-27.29 115.42-27.29 115.42-18.51 119.96-18.51Q121.01-18.51 122.04-18.65 123.06-18.8 123.89-19.27 124.72-19.75 125.25-20.63 125.77-21.51 125.77-22.9ZM126.87-9.25L126.87-9.25Q126.87-11.65 125.2-12.79 123.53-13.94 120.52-13.94L120.52-13.94 115.42-13.94 115.42-4.54 120.52-4.54Q123.53-4.54 125.2-5.7 126.87-6.86 126.87-9.25ZM136.36-6.54L136.36-6.54Q136.36-8.54 137.44-10.05 138.51-11.55 140.26-12.55 142-13.55 144.26-14.05 146.52-14.55 148.86-14.55L148.86-14.55Q150.16-14.55 151.09-14.5 152.01-14.45 152.97-14.36L152.97-14.36 152.97-15.26Q152.97-17.04 151.59-17.92 150.21-18.8 147.96-18.8L147.96-18.8Q145.91-18.8 143.79-18.23 141.66-17.65 139.76-16.55L139.76-16.55 137.71-20.51Q139.95-21.8 142.53-22.55 145.1-23.29 147.96-23.29L147.96-23.29Q149.82-23.29 151.61-22.88 153.41-22.46 154.83-21.51 156.26-20.56 157.12-19.03 157.97-17.5 157.97-15.26L157.97-15.26 157.97 0 152.97 0 152.97-3.34Q151.77-1.49 149.44-0.46 147.11 0.56 144.42 0.56L144.42 0.56Q142.76 0.56 141.28 0.11 139.81-0.34 138.73-1.25 137.66-2.15 137.01-3.48 136.36-4.81 136.36-6.54ZM145.72-3.96L145.72-3.96Q147.2-3.96 148.51-4.33 149.82-4.71 150.82-5.38 151.82-6.05 152.39-7.01 152.97-7.96 152.97-9.11L152.97-9.11 152.97-9.96Q151.77-10.16 150.72-10.18 149.67-10.21 148.86-10.21L148.86-10.21Q145.15-10.21 143.26-9.23 141.37-8.25 141.37-6.81L141.37-6.81Q141.37-3.96 145.72-3.96ZM185.9-6.81L185.9-6.81Q185.9-4.59 184.9-3.2 183.9-1.81 182.32-0.95 180.75-0.1 178.81 0.23 176.86 0.56 175.01 0.56L175.01 0.56Q171.91 0.56 168.83-0.34 165.76-1.25 163.51-2.71L163.51-2.71 165.61-6.86Q168.3-5.3 170.53-4.65 172.76-4 175.01-4L175.01-4Q178.06-4 179.45-4.65 180.84-5.3 180.84-6.45L180.84-6.45Q180.84-7.01 180.45-7.37 180.06-7.74 179.16-8.04 178.26-8.35 176.78-8.65 175.3-8.96 173.11-9.3L173.11-9.3Q171.35-9.59 169.77-10.02 168.2-10.45 167-11.23 165.81-12.01 165.09-13.21 164.36-14.4 164.36-16.21L164.36-16.21Q164.36-18.04 165.3-19.4 166.24-20.75 167.77-21.63 169.3-22.51 171.2-22.9 173.11-23.29 175.01-23.29L175.01-23.29Q177.69-23.29 180.22-22.6 182.75-21.9 184.65-20.61L184.65-20.61 182.65-16.7Q180.75-17.9 178.95-18.32 177.16-18.75 175.01-18.75L175.01-18.75Q174.11-18.75 173.13-18.65 172.15-18.55 171.32-18.27 170.49-17.99 169.94-17.52 169.39-17.04 169.39-16.36L169.39-16.36Q169.39-15.45 170.99-14.88 172.59-14.31 176.45-13.75L176.45-13.75Q178.55-13.45 180.28-13 182.02-12.55 183.26-11.78 184.51-11.01 185.2-9.8 185.9-8.59 185.9-6.81ZM214.75-9.45L195.69-9.45Q196.05-7.1 197.92-5.55 199.79-4 202.94-4L202.94-4Q205.4-4 207.22-4.77 209.04-5.54 210.36-6.81L210.36-6.81 212.95-3.25Q210.75-1.05 208.3-0.24 205.84 0.56 202.94 0.56L202.94 0.56Q200.3 0.56 198.03-0.32 195.76-1.2 194.1-2.77 192.44-4.35 191.5-6.52 190.56-8.69 190.56-11.35L190.56-11.35Q190.56-13.94 191.43-16.13 192.29-18.31 193.87-19.91 195.44-21.51 197.64-22.4 199.84-23.29 202.5-23.29L202.5-23.29Q205.26-23.29 207.5-22.35 209.75-21.41 211.35-19.63 212.95-17.85 213.85-15.27 214.75-12.7 214.75-9.45L214.75-9.45ZM195.91-13.89L209.04-13.89Q208.65-16.09 206.77-17.42 204.89-18.75 202.5-18.75L202.5-18.75Q200.1-18.75 198.2-17.42 196.3-16.09 195.91-13.89L195.91-13.89ZM239.9-31.86L239.9 0 234.84 0 234.84-2.1Q233.38-0.81 231.89-0.12 230.4 0.56 228.5 0.56L228.5 0.56Q226.3 0.56 224.42-0.32 222.54-1.2 221.18-2.77 219.83-4.35 219.06-6.54 218.29-8.74 218.29-11.35L218.29-11.35Q218.29-13.94 219.06-16.15 219.83-18.36 221.18-19.93 222.54-21.51 224.42-22.4 226.3-23.29 228.5-23.29L228.5-23.29Q230.4-23.29 231.89-22.64 233.38-22 234.84-20.7L234.84-20.7 234.84-27.29 230.45-27.29 230.45-31.86 239.9-31.86ZM234.84-6.05L234.84-16.7Q233.94-17.7 232.51-18.23 231.08-18.75 229.79-18.75L229.79-18.75Q226.93-18.75 225.14-16.7 223.34-14.65 223.34-11.35L223.34-11.35Q223.34-8.06 225.14-6.03 226.93-4 229.79-4L229.79-4Q231.08-4 232.51-4.53 233.94-5.05 234.84-6.05L234.84-6.05ZM292.02-4.54L292.02 0 276.73 0 276.73-4.54 281.76-4.54 281.76-27.29 276.73-27.29 276.73-31.86 292.02-31.86 292.02-27.29 286.82-27.29 286.82-4.54 292.02-4.54ZM322.97-16.36L322.97 0 317.92 0 317.92-15.6Q317.92-17.21 317.59-17.98 317.26-18.75 316.43-18.75L316.43-18.75Q314.91-18.75 314.51-17.05 314.11-15.36 314.11-12.11L314.11-12.11 314.11 0 309.05 0 309.05-15.6Q309.05-17.21 308.71-17.98 308.37-18.75 307.52-18.75L307.52-18.75Q306.03-18.75 305.65-17.05 305.27-15.36 305.27-12.11L305.27-12.11 305.27 0 300.22 0 300.22-22.75 305.32-22.75 305.32-19.46Q305.86-21.34 306.91-22.31 307.96-23.29 309.71-23.29L309.71-23.29Q311.18-23.29 312.17-22.4 313.16-21.51 313.52-19.95L313.52-19.95Q314.38-21.66 315.29-22.47 316.21-23.29 318.11-23.29L318.11-23.29Q320.46-23.29 321.71-21.57 322.97-19.85 322.97-16.36L322.97-16.36ZM327.41-6.54L327.41-6.54Q327.41-8.54 328.49-10.05 329.56-11.55 331.31-12.55 333.05-13.55 335.31-14.05 337.57-14.55 339.91-14.55L339.91-14.55Q341.21-14.55 342.13-14.5 343.06-14.45 344.01-14.36L344.01-14.36 344.01-15.26Q344.01-17.04 342.63-17.92 341.25-18.8 339.01-18.8L339.01-18.8Q336.96-18.8 334.83-18.23 332.71-17.65 330.8-16.55L330.8-16.55 328.75-20.51Q331-21.8 333.58-22.55 336.15-23.29 339.01-23.29L339.01-23.29Q340.86-23.29 342.66-22.88 344.45-22.46 345.88-21.51 347.31-20.56 348.16-19.03 349.02-17.5 349.02-15.26L349.02-15.26 349.02 0 344.01 0 344.01-3.34Q342.82-1.49 340.49-0.46 338.15 0.56 335.47 0.56L335.47 0.56Q333.81 0.56 332.33 0.11 330.85-0.34 329.78-1.25 328.71-2.15 328.06-3.48 327.41-4.81 327.41-6.54ZM336.76-3.96L336.76-3.96Q338.25-3.96 339.56-4.33 340.86-4.71 341.86-5.38 342.87-6.05 343.44-7.01 344.01-7.96 344.01-9.11L344.01-9.11 344.01-9.96Q342.82-10.16 341.77-10.18 340.72-10.21 339.91-10.21L339.91-10.21Q336.2-10.21 334.31-9.23 332.42-8.25 332.42-6.81L332.42-6.81Q332.42-3.96 336.76-3.96ZM376.36-22.75L376.36-0.24Q376.36 2.1 375.55 3.93 374.75 5.76 373.3 7.03 371.84 8.3 369.88 8.97 367.91 9.64 365.49 9.64L365.49 9.64Q359.56 9.64 355.36 6.05L355.36 6.05 357.76 2.15Q361.25 5.15 365.49 5.15L365.49 5.15Q368.11 5.15 369.71 3.87 371.31 2.59 371.31-0.15L371.31-0.15 371.31-2.59Q369.74-1.25 368.3-0.6 366.86 0.05 364.96 0.05L364.96 0.05Q362.76 0.05 360.88-0.88 359-1.81 357.65-3.41 356.29-5 355.52-7.13 354.75-9.25 354.75-11.65L354.75-11.65Q354.75-14.04 355.52-16.17 356.29-18.31 357.65-19.89 359-21.46 360.88-22.38 362.76-23.29 364.96-23.29L364.96-23.29Q366.86-23.29 368.35-22.64 369.84-22 371.31-20.7L371.31-20.7 371.31-22.75 376.36-22.75ZM371.31-6.59L371.31-16.7Q370.4-17.7 368.97-18.23 367.55-18.75 366.2-18.75L366.2-18.75Q363.35-18.75 361.58-16.75 359.81-14.75 359.81-11.65L359.81-11.65Q359.81-10.11 360.28-8.8 360.76-7.5 361.6-6.54 362.44-5.59 363.63-5.04 364.81-4.49 366.2-4.49L366.2-4.49Q367.55-4.49 368.97-5.04 370.4-5.59 371.31-6.59L371.31-6.59ZM405.8-9.45L386.73-9.45Q387.1-7.1 388.97-5.55 390.83-4 393.98-4L393.98-4Q396.45-4 398.27-4.77 400.09-5.54 401.41-6.81L401.41-6.81 403.99-3.25Q401.8-1.05 399.34-0.24 396.89 0.56 393.98 0.56L393.98 0.56Q391.35 0.56 389.08-0.32 386.81-1.2 385.15-2.77 383.49-4.35 382.55-6.52 381.61-8.69 381.61-11.35L381.61-11.35Q381.61-13.94 382.47-16.13 383.34-18.31 384.91-19.91 386.49-21.51 388.69-22.4 390.88-23.29 393.54-23.29L393.54-23.29Q396.3-23.29 398.55-22.35 400.8-21.41 402.39-19.63 403.99-17.85 404.9-15.27 405.8-12.7 405.8-9.45L405.8-9.45ZM386.95-13.89L400.09-13.89Q399.7-16.09 397.82-17.42 395.94-18.75 393.54-18.75L393.54-18.75Q391.15-18.75 389.25-17.42 387.34-16.09 386.95-13.89L386.95-13.89ZM460.68-16.65L460.68-15.84Q460.68-12.6 460.03-9.64 459.38-6.69 457.91-4.42 456.43-2.15 454.1-0.79 451.77 0.56 448.42 0.56L448.42 0.56Q445.08 0.56 442.76-0.82 440.44-2.2 438.96-4.47 437.48-6.74 436.84-9.72 436.19-12.7 436.19-15.89L436.19-15.89Q436.19-19.09 436.84-22.07 437.48-25.05 438.96-27.34 440.44-29.64 442.76-31.02 445.08-32.4 448.42-32.4L448.42-32.4Q449.37-32.4 450.38-32.13 451.38-31.86 452.28-31.31 453.18-30.76 453.88-29.96 454.57-29.15 454.87-28.1L454.87-28.1 454.87-31.86 459.43-31.86 459.43-20.56 454.87-20.56Q454.87-22.05 454.4-23.38 453.94-24.71 453.09-25.71 452.23-26.71 451.03-27.28 449.84-27.86 448.42-27.86L448.42-27.86Q446.27-27.86 444.91-26.78 443.54-25.71 442.71-24 441.88-22.29 441.55-20.17 441.22-18.04 441.22-15.89L441.22-15.89Q441.22-13.75 441.55-11.62 441.88-9.5 442.68-7.8 443.49-6.1 444.88-5.05 446.27-4 448.42-4L448.42-4Q451.52-4 453.43-5.98 455.33-7.96 456.04-12.11L456.04-12.11 449.33-12.11 449.33-16.65 460.68-16.65ZM487.68-9.45L468.61-9.45Q468.98-7.1 470.84-5.55 472.71-4 475.86-4L475.86-4Q478.33-4 480.15-4.77 481.96-5.54 483.28-6.81L483.28-6.81 485.87-3.25Q483.67-1.05 481.22-0.24 478.77 0.56 475.86 0.56L475.86 0.56Q473.22 0.56 470.95-0.32 468.68-1.2 467.02-2.77 465.36-4.35 464.42-6.52 463.48-8.69 463.48-11.35L463.48-11.35Q463.48-13.94 464.35-16.13 465.22-18.31 466.79-19.91 468.37-21.51 470.56-22.4 472.76-23.29 475.42-23.29L475.42-23.29Q478.18-23.29 480.43-22.35 482.67-21.41 484.27-19.63 485.87-17.85 486.77-15.27 487.68-12.7 487.68-9.45L487.68-9.45ZM468.83-13.89L481.96-13.89Q481.57-16.09 479.69-17.42 477.81-18.75 475.42-18.75L475.42-18.75Q473.03-18.75 471.12-17.42 469.22-16.09 468.83-13.89L468.83-13.89ZM512.82-14.04L512.82 0 507.77 0 507.77-14.04Q507.77-16.7 506.77-17.72 505.77-18.75 503.86-18.75L503.86-18.75Q501.05-18.75 499.28-16.48 497.51-14.21 497.51-10.21L497.51-10.21 497.51 0 492.46 0 492.46-22.75 497.51-22.75 497.51-17.04Q498.27-20 500.32-21.64 502.37-23.29 505.37-23.29L505.37-23.29Q508.87-23.29 510.84-21.02 512.82-18.75 512.82-14.04L512.82-14.04ZM542.26-9.45L523.19-9.45Q523.56-7.1 525.43-5.55 527.3-4 530.45-4L530.45-4Q532.91-4 534.73-4.77 536.55-5.54 537.87-6.81L537.87-6.81 540.46-3.25Q538.26-1.05 535.8-0.24 533.35 0.56 530.45 0.56L530.45 0.56Q527.81 0.56 525.54-0.32 523.27-1.2 521.61-2.77 519.95-4.35 519.01-6.52 518.07-8.69 518.07-11.35L518.07-11.35Q518.07-13.94 518.93-16.13 519.8-18.31 521.38-19.91 522.95-21.51 525.15-22.4 527.35-23.29 530.01-23.29L530.01-23.29Q532.76-23.29 535.01-22.35 537.26-21.41 538.86-19.63 540.46-17.85 541.36-15.27 542.26-12.7 542.26-9.45L542.26-9.45ZM523.41-13.89L536.55-13.89Q536.16-16.09 534.28-17.42 532.4-18.75 530.01-18.75L530.01-18.75Q527.61-18.75 525.71-17.42 523.81-16.09 523.41-13.89L523.41-13.89ZM569.95-22.29L568.04-17.36Q567.14-17.8 566.2-18.03 565.26-18.26 564.04-18.26L564.04-18.26Q562.35-18.26 560.88-17.76 559.4-17.26 558.32-16.26 557.25-15.26 556.65-13.76 556.05-12.26 556.05-10.21L556.05-10.21 556.05-4.54 561.16-4.54 561.16 0 545.85 0 545.85-4.54 551-4.54 551-18.19 545.85-18.19 545.85-22.75 556.05-22.75 556.05-17.04Q557.3-20.46 559.73-21.88 562.16-23.29 565.5-23.29L565.5-23.29Q566.55-23.29 567.7-23.07 568.85-22.85 569.95-22.29L569.95-22.29ZM573.04-6.54L573.04-6.54Q573.04-8.54 574.12-10.05 575.19-11.55 576.94-12.55 578.68-13.55 580.94-14.05 583.2-14.55 585.54-14.55L585.54-14.55Q586.84-14.55 587.76-14.5 588.69-14.45 589.64-14.36L589.64-14.36 589.64-15.26Q589.64-17.04 588.27-17.92 586.89-18.8 584.64-18.8L584.64-18.8Q582.59-18.8 580.47-18.23 578.34-17.65 576.44-16.55L576.44-16.55 574.39-20.51Q576.63-21.8 579.21-22.55 581.78-23.29 584.64-23.29L584.64-23.29Q586.5-23.29 588.29-22.88 590.08-22.46 591.51-21.51 592.94-20.56 593.8-19.03 594.65-17.5 594.65-15.26L594.65-15.26 594.65 0 589.64 0 589.64-3.34Q588.45-1.49 586.12-0.46 583.79 0.56 581.1 0.56L581.1 0.56Q579.44 0.56 577.96 0.11 576.49-0.34 575.41-1.25 574.34-2.15 573.69-3.48 573.04-4.81 573.04-6.54ZM582.39-3.96L582.39-3.96Q583.88-3.96 585.19-4.33 586.5-4.71 587.5-5.38 588.5-6.05 589.07-7.01 589.64-7.96 589.64-9.11L589.64-9.11 589.64-9.96Q588.45-10.16 587.4-10.18 586.35-10.21 585.54-10.21L585.54-10.21Q581.83-10.21 579.94-9.23 578.05-8.25 578.05-6.81L578.05-6.81Q578.05-3.96 582.39-3.96ZM618.99-8.25L623.43-7.25Q623.04-3.66 620.61-1.55 618.18 0.56 614.54 0.56L614.54 0.56Q612.54 0.56 610.88-0.1 609.22-0.76 608.05-1.93 606.88-3.1 606.23-4.75 605.58-6.4 605.58-8.35L605.58-8.35 605.58-18.19 600.43-18.19 600.43-22.75 605.58-22.75 605.58-31.86 610.64-31.86 610.64-22.75 620.18-22.75 620.18-18.19 610.64-18.19 610.64-8.35Q610.64-6.15 611.71-5.08 612.79-4 614.54-4L614.54-4Q616.69-4 617.74-5.25 618.79-6.49 618.99-8.25L618.99-8.25ZM651.07-11.35L651.07-11.35Q651.07-8.69 650.22-6.52 649.38-4.35 647.81-2.77 646.23-1.2 644.03-0.32 641.84 0.56 639.13 0.56L639.13 0.56Q636.47 0.56 634.27-0.32 632.07-1.2 630.5-2.77 628.92-4.35 628.08-6.52 627.24-8.69 627.24-11.35L627.24-11.35Q627.24-13.94 628.08-16.15 628.92-18.36 630.5-19.96 632.07-21.56 634.27-22.42 636.47-23.29 639.13-23.29L639.13-23.29Q641.84-23.29 644.03-22.42 646.23-21.56 647.81-19.96 649.38-18.36 650.22-16.15 651.07-13.94 651.07-11.35ZM646.04-11.35L646.04-11.35Q646.04-12.89 645.56-14.27 645.08-15.65 644.18-16.63 643.28-17.6 642-18.18 640.71-18.75 639.13-18.75L639.13-18.75Q637.52-18.75 636.25-18.18 634.98-17.6 634.1-16.63 633.22-15.65 632.74-14.27 632.27-12.89 632.27-11.35L632.27-11.35Q632.27-9.74 632.74-8.42 633.22-7.1 634.1-6.1 634.98-5.1 636.25-4.55 637.52-4 639.13-4L639.13-4Q640.71-4 642-4.55 643.28-5.1 644.18-6.1 645.08-7.1 645.56-8.42 646.04-9.74 646.04-11.35ZM679.11-22.29L677.21-17.36Q676.31-17.8 675.37-18.03 674.43-18.26 673.21-18.26L673.21-18.26Q671.52-18.26 670.04-17.76 668.57-17.26 667.49-16.26 666.42-15.26 665.82-13.76 665.22-12.26 665.22-10.21L665.22-10.21 665.22-4.54 670.33-4.54 670.33 0 655.02 0 655.02-4.54 660.17-4.54 660.17-18.19 655.02-18.19 655.02-22.75 665.22-22.75 665.22-17.04Q666.47-20.46 668.9-21.88 671.33-23.29 674.67-23.29L674.67-23.29Q675.72-23.29 676.87-23.07 678.02-22.85 679.11-22.29L679.11-22.29Z" opacity="1" transform="matrix(1,0,0,1,0,0)" fill="#000000" class="undefined-text-1" data-fill-palette-color="secondary" id="text-1"></path></svg></g></svg></g></svg></g></svg></g><g><svg viewBox="0 0 111.76699141698285 115.60404921472652" height="115.60404921472652" width="111.76699141698285"><g><svg xmlns="http://www.w3.org/2000/svg" xmlns:xlink="http://www.w3.org/1999/xlink" version="1.1" x="0" y="0" viewBox="9.799249649047852 8.418999671936035 80.40174102783203 83.16200256347656" enable-background="new 0 0 100 100" xml:space="preserve" height="115.60404921472652" width="111.76699141698285" class="icon-icon-0" data-fill-palette-color="accent" id="icon-0"><g fill="#045677" data-fill-palette-color="accent"><path fill="#000000" d="M82.322 29.618c0.214 0 0.415 0.083 0.566 0.235 0.312 0.312 0.312 0.82 0 1.133-0.15 0.15-0.35 0.233-0.563 0.233-0.089 0-0.176-0.014-0.26-0.042l-0.374-0.126-0.126-0.374c-0.098-0.292-0.025-0.608 0.19-0.823C81.907 29.701 82.108 29.618 82.322 29.618M38.552 88.637l0.354 0.175c0.276 0.137 0.447 0.412 0.447 0.717 0 0.442-0.359 0.801-0.801 0.801s-0.801-0.359-0.801-0.801c0-0.305 0.171-0.58 0.447-0.717L38.552 88.637M82.322 28.368c-0.525 0-1.05 0.2-1.451 0.601-0.57 0.57-0.732 1.391-0.491 2.106L65.494 45.962H46.056l-8.414 8.414v33.317c-0.676 0.336-1.142 1.031-1.142 1.837 0 1.133 0.919 2.051 2.051 2.051 1.133 0 2.051-0.919 2.051-2.051 0-0.806-0.466-1.501-1.142-1.837V55.129l7.348-7.348h19.437l15.42-15.42c0.213 0.072 0.436 0.108 0.659 0.108 0.524 0 1.048-0.199 1.448-0.599 0.801-0.801 0.801-2.1 0-2.901C83.373 28.568 82.847 28.368 82.322 28.368L82.322 28.368z" data-fill-palette-color="accent"></path><path fill="#000000" d="M61.778 14.362c0.442 0 0.801 0.359 0.801 0.801 0 0.305-0.171 0.58-0.447 0.717l-0.354 0.175-0.354-0.175c-0.276-0.137-0.447-0.412-0.447-0.717C60.977 14.722 61.337 14.362 61.778 14.362M32.906 75.869l0.354 0.175c0.276 0.137 0.447 0.412 0.447 0.717 0 0.442-0.359 0.801-0.801 0.801s-0.801-0.359-0.801-0.801c0-0.305 0.171-0.58 0.447-0.717L32.906 75.869M61.778 13.112c-1.133 0-2.051 0.919-2.051 2.051 0 0.806 0.466 1.501 1.142 1.837v16.186l-5.823 5.615H42.987l-10.99 10.99v25.133c-0.676 0.335-1.142 1.031-1.142 1.837 0 1.133 0.919 2.051 2.051 2.051s2.051-0.919 2.051-2.051c0-0.806-0.466-1.501-1.142-1.837v-24.38l9.925-9.925H55.78l6.908-6.661V17c0.676-0.335 1.142-1.031 1.142-1.837C63.83 14.03 62.911 13.112 61.778 13.112L61.778 13.112z" data-fill-palette-color="accent"></path><path fill="#000000" d="M11.851 34.222c0.214 0 0.415 0.083 0.566 0.234 0.216 0.216 0.289 0.531 0.19 0.823l-0.126 0.374-0.374 0.126c-0.084 0.028-0.171 0.042-0.26 0.042-0.213 0-0.413-0.083-0.563-0.233-0.151-0.151-0.235-0.352-0.235-0.566s0.083-0.415 0.235-0.566C11.436 34.305 11.637 34.222 11.851 34.222M27.109 86.213l0.354 0.175c0.276 0.137 0.447 0.412 0.447 0.717 0 0.442-0.359 0.801-0.801 0.801-0.442 0-0.801-0.359-0.801-0.801 0-0.305 0.171-0.58 0.447-0.717L27.109 86.213M11.851 32.971c-0.525 0-1.05 0.2-1.451 0.601-0.801 0.801-0.801 2.1 0 2.901 0.4 0.4 0.924 0.599 1.448 0.599 0.223 0 0.445-0.036 0.659-0.108l7.101 7.101v12.276l6.593 6.593v22.334c-0.676 0.335-1.142 1.031-1.142 1.837 0 1.133 0.919 2.051 2.051 2.051 1.133 0 2.051-0.919 2.051-2.051 0-0.806-0.466-1.501-1.142-1.837V62.181l-6.593-6.593V43.312l-7.634-7.634c0.241-0.715 0.079-1.536-0.491-2.106C12.901 33.172 12.376 32.971 11.851 32.971L11.851 32.971z" data-fill-palette-color="accent"></path><path fill="#000000" d="M74.423 19.9c0.214 0 0.415 0.083 0.566 0.235 0.312 0.312 0.312 0.821 0 1.133-0.15 0.15-0.35 0.233-0.563 0.233-0.089 0-0.176-0.014-0.26-0.042l-0.374-0.126-0.126-0.374c-0.098-0.292-0.025-0.608 0.19-0.823C74.007 19.983 74.209 19.9 74.423 19.9M62.998 39.507c0.089 0 0.176 0.014 0.26 0.042l0.374 0.126 0.126 0.374c0.098 0.292 0.025 0.607-0.19 0.823-0.151 0.151-0.352 0.235-0.566 0.235-0.214 0-0.415-0.083-0.566-0.235-0.151-0.151-0.235-0.352-0.235-0.566s0.083-0.415 0.235-0.566C62.585 39.589 62.785 39.507 62.998 39.507M74.423 18.649c-0.525 0-1.05 0.2-1.451 0.601-0.57 0.57-0.732 1.391-0.491 2.106l-3.655 3.655v8.184l-5.169 5.168c-0.213-0.072-0.436-0.108-0.659-0.108-0.524 0-1.048 0.199-1.447 0.599-0.801 0.801-0.801 2.1 0 2.901 0.401 0.401 0.926 0.601 1.451 0.601 0.525 0 1.05-0.2 1.451-0.601 0.57-0.57 0.732-1.391 0.491-2.106l5.701-5.701v-8.184l3.123-3.122c0.213 0.072 0.436 0.108 0.659 0.108 0.524 0 1.048-0.199 1.447-0.599 0.801-0.801 0.801-2.1 0-2.901C75.473 18.849 74.948 18.649 74.423 18.649L74.423 18.649z" data-fill-palette-color="accent"></path><path fill="#000000" d="M88.149 36.869c0.442 0 0.801 0.359 0.801 0.801 0 0.305-0.171 0.58-0.447 0.717l-0.354 0.175-0.354-0.175c-0.276-0.137-0.447-0.412-0.447-0.717C87.348 37.228 87.708 36.869 88.149 36.869M81.413 51.783c0.089 0 0.176 0.014 0.26 0.042l0.374 0.126 0.126 0.374c0.098 0.292 0.025 0.607-0.19 0.823-0.151 0.151-0.352 0.235-0.566 0.235-0.214 0-0.415-0.083-0.566-0.235-0.312-0.312-0.312-0.82 0-1.133C80.999 51.865 81.199 51.783 81.413 51.783M88.149 35.618c-1.133 0-2.051 0.919-2.051 2.051 0 0.806 0.466 1.501 1.142 1.837v5.966l-5.169 5.168c-0.213-0.072-0.436-0.108-0.659-0.108-0.524 0-1.048 0.199-1.447 0.599-0.801 0.801-0.801 2.1 0 2.901 0.4 0.401 0.926 0.601 1.451 0.601 0.525 0 1.05-0.2 1.451-0.601 0.57-0.57 0.732-1.391 0.491-2.106l5.701-5.701v-6.719c0.676-0.335 1.142-1.031 1.142-1.837C90.201 36.537 89.282 35.618 88.149 35.618L88.149 35.618z" data-fill-palette-color="accent"></path><path fill="#000000" d="M22.676 18.454c0.442 0 0.801 0.359 0.801 0.801 0 0.305-0.171 0.58-0.447 0.717l-0.354 0.175-0.354-0.175c-0.276-0.137-0.447-0.412-0.447-0.717C21.875 18.814 22.235 18.454 22.676 18.454M26.768 53.135l0.354 0.175c0.276 0.137 0.447 0.412 0.447 0.717 0 0.442-0.359 0.801-0.801 0.801-0.442 0-0.801-0.359-0.801-0.801 0-0.305 0.171-0.58 0.447-0.717L26.768 53.135M22.676 17.204c-1.133 0-2.051 0.919-2.051 2.051 0 0.806 0.466 1.501 1.142 1.837v8.765l4.092 4.092V52.19c-0.676 0.335-1.142 1.031-1.142 1.837 0 1.133 0.919 2.051 2.051 2.051 1.133 0 2.051-0.919 2.051-2.051 0-0.806-0.466-1.501-1.142-1.837V33.196l-4.092-4.092v-8.012c0.676-0.335 1.142-1.031 1.142-1.837C24.728 18.123 23.809 17.204 22.676 17.204L22.676 17.204z" data-fill-palette-color="accent"></path><path fill="#000000" d="M14.492 24.592c0.442 0 0.801 0.359 0.801 0.801 0 0.305-0.171 0.58-0.447 0.717l-0.354 0.175-0.354-0.175c-0.276-0.137-0.447-0.412-0.447-0.717C13.691 24.952 14.051 24.592 14.492 24.592M19.183 33.369c0.213 0 0.413 0.083 0.563 0.233 0.312 0.312 0.312 0.82 0 1.133-0.151 0.151-0.352 0.235-0.566 0.235s-0.415-0.083-0.566-0.235c-0.216-0.216-0.289-0.531-0.19-0.823l0.126-0.374 0.374-0.126C19.007 33.383 19.094 33.369 19.183 33.369M14.492 23.342c-1.133 0-2.051 0.919-2.051 2.051 0 0.806 0.466 1.501 1.142 1.837v2.627l3.655 3.655c-0.241 0.715-0.079 1.536 0.491 2.106 0.401 0.401 0.926 0.601 1.451 0.601 0.525 0 1.05-0.2 1.451-0.601 0.801-0.801 0.801-2.1 0-2.901-0.4-0.4-0.924-0.599-1.447-0.599-0.223 0-0.445 0.036-0.659 0.108l-3.122-3.122V27.23c0.676-0.335 1.142-1.031 1.142-1.837C16.544 24.261 15.625 23.342 14.492 23.342L14.492 23.342z" data-fill-palette-color="accent"></path><path fill="#000000" d="M30.86 14.362c0.442 0 0.801 0.359 0.801 0.801 0 0.305-0.171 0.58-0.447 0.717l-0.354 0.175-0.354-0.175c-0.276-0.137-0.447-0.412-0.447-0.717C30.059 14.722 30.419 14.362 30.86 14.362M51.315 30.725c0.442 0 0.801 0.359 0.801 0.801 0 0.442-0.359 0.801-0.801 0.801-0.305 0-0.58-0.171-0.717-0.447l-0.175-0.353 0.175-0.354C50.736 30.897 51.01 30.725 51.315 30.725M30.86 13.112c-1.133 0-2.051 0.919-2.051 2.051 0 0.806 0.466 1.501 1.142 1.837v4.673l10.763 10.763h8.765c0.336 0.676 1.031 1.142 1.837 1.142 1.133 0 2.051-0.919 2.051-2.051 0-1.133-0.919-2.051-2.051-2.051-0.806 0-1.501 0.466-1.837 1.142h-8.012l-9.697-9.697V17c0.676-0.335 1.142-1.031 1.142-1.837C32.912 14.03 31.993 13.112 30.86 13.112L30.86 13.112z" data-fill-palette-color="accent"></path><path fill="#000000" d="M45.778 9.669c0.214 0 0.415 0.083 0.566 0.235 0.151 0.151 0.235 0.352 0.235 0.566 0 0.214-0.083 0.415-0.234 0.566-0.15 0.15-0.35 0.233-0.563 0.233-0.089 0-0.176-0.014-0.26-0.042l-0.374-0.126-0.126-0.374c-0.098-0.292-0.025-0.608 0.19-0.823C45.363 9.753 45.564 9.669 45.778 9.669M53.361 22.541c0.442 0 0.801 0.359 0.801 0.801 0 0.442-0.359 0.801-0.801 0.801-0.305 0-0.58-0.171-0.717-0.447l-0.175-0.353 0.175-0.354C52.782 22.712 53.056 22.541 53.361 22.541M45.778 8.419c-0.525 0-1.05 0.2-1.451 0.601-0.57 0.57-0.732 1.391-0.491 2.106l-6.078 6.078 7.047 7.047h6.719c0.336 0.676 1.031 1.142 1.837 1.142 1.133 0 2.051-0.919 2.051-2.051 0-1.133-0.919-2.051-2.051-2.051-0.806 0-1.501 0.466-1.837 1.142h-5.965l-5.229-5.229 4.792-4.792c0.213 0.072 0.436 0.108 0.659 0.108 0.524 0 1.048-0.199 1.448-0.599 0.801-0.801 0.801-2.1 0-2.901C46.828 8.619 46.303 8.419 45.778 8.419L45.778 8.419z" data-fill-palette-color="accent"></path><path fill="#000000" d="M56.008 9.669c0.214 0 0.415 0.083 0.566 0.235 0.312 0.312 0.312 0.821 0 1.133-0.15 0.15-0.35 0.233-0.563 0.233-0.089 0-0.176-0.014-0.26-0.042l-0.374-0.126-0.126-0.374c-0.098-0.292-0.025-0.607 0.19-0.823C55.593 9.753 55.794 9.669 56.008 9.669M50.722 14.954c0.089 0 0.176 0.014 0.26 0.042l0.374 0.126 0.126 0.374c0.098 0.292 0.025 0.607-0.19 0.823-0.151 0.151-0.352 0.235-0.566 0.235s-0.415-0.083-0.566-0.235c-0.151-0.151-0.235-0.352-0.235-0.566s0.083-0.415 0.235-0.566C50.309 15.037 50.509 14.954 50.722 14.954M56.008 8.419c-0.525 0-1.05 0.2-1.451 0.601-0.57 0.57-0.732 1.391-0.491 2.106l-2.686 2.686c-0.213-0.072-0.436-0.108-0.659-0.108-0.524 0-1.048 0.199-1.447 0.599-0.801 0.801-0.801 2.1 0 2.901 0.401 0.401 0.926 0.601 1.451 0.601s1.05-0.2 1.451-0.601c0.57-0.57 0.732-1.391 0.491-2.106l2.686-2.686c0.213 0.072 0.436 0.108 0.659 0.108 0.524 0 1.048-0.199 1.447-0.599 0.801-0.801 0.801-2.1 0-2.901C57.058 8.619 56.533 8.419 56.008 8.419L56.008 8.419z" data-fill-palette-color="accent"></path><path fill="#000000" d="M32.311 30.13c0.214 0 0.415 0.083 0.566 0.234 0.216 0.216 0.289 0.531 0.19 0.823l-0.126 0.374-0.374 0.126c-0.084 0.028-0.171 0.042-0.26 0.042-0.213 0-0.413-0.083-0.563-0.233-0.312-0.312-0.312-0.821 0-1.133C31.896 30.213 32.097 30.13 32.311 30.13M32.308 39.507c0.089 0 0.176 0.014 0.26 0.042l0.374 0.126 0.126 0.374c0.098 0.292 0.025 0.608-0.19 0.823-0.151 0.151-0.352 0.235-0.566 0.235s-0.415-0.083-0.566-0.235c-0.312-0.312-0.312-0.82 0-1.133C31.895 39.589 32.095 39.507 32.308 39.507M32.311 28.879c-0.525 0-1.05 0.2-1.451 0.601-0.801 0.801-0.801 2.1 0 2.901 0.4 0.4 0.924 0.599 1.447 0.599 0.223 0 0.445-0.036 0.659-0.108l1.077 1.076v3.339l-1.076 1.076c-0.213-0.072-0.436-0.108-0.659-0.108-0.524 0-1.048 0.199-1.447 0.599-0.801 0.801-0.801 2.1 0 2.901 0.401 0.401 0.925 0.601 1.451 0.601 0.525 0 1.05-0.2 1.451-0.601 0.57-0.57 0.732-1.391 0.491-2.106l1.609-1.609v-4.845l-1.609-1.609c0.241-0.715 0.079-1.536-0.491-2.106C33.361 29.08 32.836 28.879 32.311 28.879L32.311 28.879z" data-fill-palette-color="accent"></path><path fill="#000000" d="M80.561 42.406c0.214 0 0.415 0.083 0.566 0.235 0.312 0.312 0.312 0.821 0 1.133-0.15 0.15-0.35 0.233-0.563 0.233-0.089 0-0.176-0.014-0.26-0.042l-0.374-0.126-0.126-0.374c-0.098-0.292-0.025-0.608 0.19-0.823C80.145 42.489 80.347 42.406 80.561 42.406M51.326 53.231c0.305 0 0.58 0.171 0.717 0.447l0.175 0.354-0.175 0.353c-0.137 0.276-0.412 0.447-0.717 0.447-0.442 0-0.801-0.359-0.801-0.801S50.884 53.231 51.326 53.231M80.561 41.156c-0.525 0-1.05 0.2-1.451 0.601-0.57 0.57-0.732 1.391-0.491 2.106l-9.261 9.261H53.163c-0.335-0.676-1.031-1.142-1.837-1.142-1.133 0-2.051 0.919-2.051 2.051 0 1.133 0.919 2.051 2.051 2.051 0.806 0 1.501-0.466 1.837-1.142h16.949l9.793-9.793c0.213 0.072 0.436 0.108 0.659 0.108 0.524 0 1.048-0.199 1.448-0.599 0.801-0.801 0.801-2.1 0-2.901C81.611 41.356 81.086 41.156 80.561 41.156L80.561 41.156z" data-fill-palette-color="accent"></path><path fill="#000000" d="M11.851 44.452c0.214 0 0.415 0.083 0.566 0.234 0.216 0.216 0.289 0.531 0.19 0.823l-0.126 0.374-0.374 0.126c-0.084 0.028-0.171 0.042-0.26 0.042-0.213 0-0.413-0.083-0.563-0.233-0.312-0.312-0.312-0.821 0-1.133C11.436 44.535 11.637 44.452 11.851 44.452M14.492 53.135l0.354 0.175c0.276 0.137 0.447 0.412 0.447 0.717 0 0.442-0.359 0.801-0.801 0.801s-0.801-0.359-0.801-0.801c0-0.305 0.171-0.58 0.447-0.717L14.492 53.135M11.851 43.202c-0.525 0-1.05 0.2-1.451 0.601-0.801 0.801-0.801 2.1 0 2.901 0.4 0.4 0.924 0.599 1.447 0.599 0.223 0 0.445-0.036 0.659-0.108l1.077 1.076v3.919c-0.676 0.335-1.142 1.031-1.142 1.837 0 1.133 0.919 2.051 2.051 2.051s2.051-0.919 2.051-2.051c0-0.806-0.466-1.501-1.142-1.837v-4.673l-1.609-1.609c0.241-0.715 0.079-1.536-0.491-2.106C12.901 43.402 12.376 43.202 11.851 43.202L11.851 43.202z" data-fill-palette-color="accent"></path></g></svg></g></svg></g></svg></g><defs></defs></svg><rect width="395.52" height="88.12833070538895" fill="none" stroke="none" visibility="hidden"></rect></g></svg></g></svg>